<svg xmlns="http://www.w3.org/2000/svg" xmlns:xlink="http://www.w3.org/1999/xlink" version="1.1" width="201" height="236" viewBox="0 0 201 236">
<defs>
<path id="font_1_34" d="M.651001 .18289185C.651001 .26983644 .56900027 .34480287 .45799256 .35679627 .5549927 .3757782 .6239929 .43974305 .6239929 .51368716 .6239929 .6006317 .5319977 .6826172 .4019928 .6826172H.035995485V.6516113H.05999756C.13699341 .6516113 .13899231 .64060977 .13899231 .6046295V.07795715C.13899231 .041992189 .13699341 .0309906 .05999756 .0309906H.035995485V0H.42799378C.5609894-.0002593994 .651001 .08874512 .651001 .18273926V.18289185M.5269928 .5136719C.5269928 .44970704 .47799684 .36573792 .36698915 .36573792H.22200012V.6116333C.22200012 .64460757 .22399903 .6516113 .2709961 .6516113H.394989C.49198915 .65174868 .5269928 .56674197 .5269928 .51374819V.5136719M.5509949 .18386841C.5509949 .1129303 .49899293 .0309906 .3959961 .0309906H.2709961C.22399903 .0309906 .22200012 .037994386 .22200012 .07095337V.34375H.4099884C.5089874 .34399415 .5509949 .25099183 .5509949 .18399048V.18386841Z"/>
<path id="font_1_81" d="M.47099305 .21424866C.47099305 .34223939 .37098695 .4482422 .25 .4482422 .125 .4482422 .027999878 .3392334 .027999878 .21424866 .027999878 .085250858 .13198853-.0107421879 .24899292-.0107421879 .36999513-.0107421879 .47099305 .087249759 .47099305 .21424866M.3880005 .22224427C.3880005 .18624878 .3880005 .13224793 .3659973 .08824158 .34399415 .04324341 .2999878 .014251709 .25 .014251709 .20698548 .014251709 .16299439 .035247804 .13598633 .08125305 .11099243 .12524414 .11099243 .18624878 .11099243 .22224427 .11099243 .26124574 .11099243 .31523133 .1349945 .35923768 .1619873 .40522767 .20899964 .426239 .24899292 .426239 .29299928 .426239 .33599855 .40423585 .3619995 .36123658 .3880005 .3182373 .3880005 .26023866 .3880005 .22224427Z"/>
<path id="font_1_118" d="M.5079956 .3996582V.43066407C.4850006 .4286499 .45599366 .42765809 .43299867 .42765809L.34599305 .43066407V.3996582C.3769989 .39866639 .3929901 .3816681 .3929901 .35668946 .3929901 .34669496 .3919983 .34469605 .3869934 .33270265L.28599549 .08685303 .1749878 .35568238C.17098999 .36567689 .16899109 .36967469 .16899109 .3736725 .16899109 .3996582 .20599365 .3996582 .22499085 .3996582V.43066407L.115997318 .42765809C.08898926 .42765809 .04899597 .4286499 .018997193 .43066407V.3996582C.066986087 .3996582 .085998538 .3996582 .099990848 .36468507L.25-.000091552738 .22499085-.059066774C.20298767-.11407471 .1749878-.18309021 .11099243-.18309021 .10598755-.18309021 .08299255-.18309021 .06399536-.16503906 .09498596-.16104126 .102996829-.13905335 .102996829-.123046878 .102996829-.0970459 .083999637-.08103943 .06098938-.08103943 .040985109-.08103943 .018997193-.09403992 .018997193-.124053958 .018997193-.16905213 .06098938-.20507813 .11099243-.20507813 .17399597-.20507813 .21499634-.14804077 .23899842-.091049198L.4149933 .33569337C.44099427 .39865113 .49198915 .3996582 .5079956 .3996582Z"/>
<path id="font_1_97" d="M.49899293 .18579102C.49899293 .2858429 .43299867 .36791993 .34899903 .38793946L.22099304 .4189453C.15899658 .43388368 .11999512 .48773194 .11999512 .5458069 .11999512 .61595156 .17399597 .677063 .2519989 .677063 .4189911 .677063 .44099427 .5127411 .44699098 .46777345 .44799806 .461792 .44799806 .45581056 .45899964 .45581056 .47200013 .45581056 .47200013 .46080018 .47200013 .47973634V.68107607C.47200013 .69807437 .47200013 .7050781 .46099855 .7050781 .45399476 .7050781 .45298768 .70407107 .44599916 .69207766L.41099549 .63497927C.3809967 .66404727 .33999635 .7050781 .25099183 .7050781 .13999939 .7050781 .055999757 .61694338 .055999757 .5107422 .055999757 .42790223 .10899353 .35490418 .18699646 .32788087 .19799805 .32388307 .24899292 .3118744 .31900025 .29486085 .34599305 .28785707 .37599183 .280838 .4039917 .24382019 .4249878 .2177887 .43499757 .18478394 .43499757 .1517334 .43499757 .0806427 .3849945 .008529663 .30099488 .008529663 .27198792 .008529663 .19599915 .013534546 .14299011 .06260681 .084991458 .11668396 .08198547 .18078614 .08099365 .21679688 .07998657 .22679138 .07199097 .22679138 .068984989 .22679138 .055999757 .22679138 .055999757 .2197876 .055999757 .20178223V.0015258789C.055999757-.015472412 .055999757-.022460938 .066986087-.022460938 .07398987-.022460938 .07499695-.020462037 .08198547-.009475708 .08198547-.009475708 .084991458-.0054626467 .117996219 .047592164 .14898682 .013534546 .21299744-.022460938 .3019867-.022460938 .4189911-.022460938 .49899293 .07562256 .49899293 .18579102Z"/>
<path id="font_1_57" d="M.47099305 .16503906V.19602967H.37098695V.6507721C.37098695 .6707611 .37098695 .6767578 .35499574 .6767578 .34599305 .6767578 .34298707 .6767578 .33499146 .6647644L.027999878 .19602967V.16503906H.2939911V.07800293C.2939911 .041992189 .2919922 .0309906 .21798706 .0309906H.19699097V0C.23799134 .0029907227 .2899933 .0029907227 .33198548 .0029907227 .37399293 .0029907227 .4269867 .0029907227 .46798707 0V.0309906H.44699098C.37298585 .0309906 .37098695 .041992189 .37098695 .07800293V.16503906H.47099305M.2999878 .19602967H.055999757L.2999878 .56881716V.19602967Z"/>
<path id="font_1_83" d="M.6239929 .4967041C.6239929 .59465029 .5249939 .6826172 .3880005 .6826172H.034988405V.6516113H.05899048C.13598633 .6516113 .13798523 .64060977 .13798523 .6046295V.07795715C.13798523 .041992189 .13598633 .0309906 .05899048 .0309906H.034988405V0C.069992069 .0029907227 .14399719 .0029907227 .18199158 .0029907227 .21998596 .0029907227 .29499818 .0029907227 .32998658 0V.0309906H.30599977C.22898865 .0309906 .22698975 .041992189 .22698975 .07795715V.3157959H.3959961C.5159912 .3157959 .6239929 .39675904 .6239929 .4967041M.5209961 .4967041C.5209961 .4497223 .5209961 .34179688 .3619995 .34179688H.22399903V.6116333C.22399903 .64460757 .22599793 .6516113 .272995 .6516113H.3619995C.5209961 .6516113 .5209961 .54566958 .5209961 .4967041Z"/>
<path id="font_1_82" d="M.4189911 0V.0309906H.3869934C.29699708 .0309906 .2939911 .041992189 .2939911 .07902527V.64012148C.2939911 .6640167 .2939911 .6660156 .2709961 .6660156 .20899964 .60227969 .12098694 .60227969 .08898926 .60227969V.57128909C.10899353 .57128909 .16799927 .57128909 .21998596 .5972748V.07902527C.21998596 .042999269 .21699524 .0309906 .1269989 .0309906H.09498596V0C.12998963 .0029907227 .21699524 .0029907227 .25698854 .0029907227 .29699708 .0029907227 .38398744 .0029907227 .4189911 0Z"/>
<path id="font_1_62" d="M.71598818 0V.0309906H.69200137C.61499026 .0309906 .61299136 .041992189 .61299136 .07797241V.6046448C.61299136 .640625 .61499026 .6516113 .69200137 .6516113H.71598818V.6826172C.68099978 .6796112 .6069946 .6796112 .56900027 .6796112 .5309906 .6796112 .45599366 .6796112 .42099 .6826172V.6516113H.44499208C.5219879 .6516113 .5239868 .640625 .5239868 .6046448V.37083436H.22499085V.6046448C.22499085 .640625 .22698975 .6516113 .3039856 .6516113H.32798768V.6826172C.29299928 .6796112 .21899414 .6796112 .18099976 .6796112 .14299011 .6796112 .067993167 .6796112 .032989503 .6826172V.6516113H.056991579C.13398743 .6516113 .13598633 .640625 .13598633 .6046448V.07797241C.13598633 .041992189 .13398743 .0309906 .056991579 .0309906H.032989503V0C.067993167 .0029907227 .14199829 .0029907227 .17999268 .0029907227 .21798706 .0029907227 .29299928 .0029907227 .32798768 0V.0309906H.3039856C.22698975 .0309906 .22499085 .041992189 .22499085 .07797241V.33984376H.5239868V.07797241C.5239868 .041992189 .5219879 .0309906 .44499208 .0309906H.42099V0C.45599366 .0029907227 .5299988 .0029907227 .56799319 .0029907227 .60598757 .0029907227 .68099978 .0029907227 .71598818 0Z"/>
<path id="font_1_107" d="M.44898988 .17396546H.42399598C.4189911 .14398194 .4119873 .099990848 .4019928 .084991458 .394989 .07699585 .32899476 .07699585 .30699159 .07699585H.1269989L.23298645 .17996216C.3889923 .31803895 .44898988 .37210084 .44898988 .47216798 .44898988 .5860901 .35899354 .6660156 .23699951 .6660156 .12399292 .6660156 .049987794 .57411196 .049987794 .48516847 .049987794 .4291687 .099990848 .4291687 .102996829 .4291687 .11999512 .4291687 .15499878 .44117738 .15499878 .48217774 .15499878 .5081787 .13699341 .5341797 .101989749 .5341797 .09399414 .5341797 .09199524 .5341797 .08898926 .5331726 .11199951 .59806826 .1659851 .63500979 .22399903 .63500979 .31498719 .63500979 .35798646 .5541382 .35798646 .47216798 .35798646 .39196778 .30799867 .31297303 .25299073 .25097657L.06098938 .036987306C.049987794 .025985718 .049987794 .023986817 .049987794 0H.42099L.44898988 .17396546Z"/>
<path id="font_1_106" d="M.45700074 .17037964C.45700074 .252594 .3939972 .33088685 .2899933 .35191346 .37199403 .37893678 .42999269 .4490509 .42999269 .52809146 .42999269 .6100464 .34199525 .6660156 .24598694 .6660156 .14498902 .6660156 .068984989 .60606387 .068984989 .53009036 .068984989 .49710084 .09098816 .47808839 .11999512 .47808839 .15098572 .47808839 .17098999 .50009158 .17098999 .5290985 .17098999 .57910159 .12399292 .57910159 .10899353 .57910159 .13999939 .62802127 .20599365 .64100649 .24198914 .64100649 .2829895 .64100649 .33799745 .6190338 .33799745 .5290985 .33799745 .51708987 .33599855 .45906068 .30999757 .4149933 .27999879 .36691285 .24598694 .36390687 .22099304 .36291505 .21299744 .36190797 .18899536 .35990907 .18199158 .35990907 .17399597 .35890199 .16699219 .35791017 .16699219 .3479004 .16699219 .33691407 .17399597 .33691407 .19099427 .33691407H.23498535C.31698609 .33691407 .35398866 .2686615 .35398866 .17037964 .35398866 .034469606 .2849884 .0055389406 .24099732 .0055389406 .19799805 .0055389406 .12298584 .022491456 .08799744 .08137512 .12298584 .07637024 .1539917 .09837341 .1539917 .1363678 .1539917 .17237854 .1269989 .19238281 .09799194 .19238281 .07398987 .19238281 .041992189 .17837525 .041992189 .1343689 .041992189 .043441774 .1349945-.022460938 .24398804-.022460938 .3659973-.022460938 .45700074 .06838989 .45700074 .17037964Z"/>
</defs>
<use data-text="B" xlink:href="#font_1_34" transform="matrix(9.9626,0,0,-9.962899,1.1699982,120.20325)"/>
<use data-text="o" xlink:href="#font_1_81" transform="matrix(9.9626,0,0,-9.962899,8.223518,120.20325)"/>
<use data-text="y" xlink:href="#font_1_118" transform="matrix(9.9626,0,0,-9.962899,12.925865,120.20325)"/>
<use data-text="S" xlink:href="#font_1_97" transform="matrix(9.9626,0,0,-9.962899,46.938,206.26782)"/>
<use data-text="4" xlink:href="#font_1_57" transform="matrix(9.9626,0,0,-9.962899,52.477209,206.26782)"/>
<path transform="matrix(1,0,0,-1.00003,9.678001,117.822177)" stroke-width=".3985" stroke-linecap="butt" stroke-miterlimit="10" stroke-linejoin="miter" fill="none" stroke="#000000" d="M3.97115-7.94327 38.95328-77.89912"/>
<use data-text="P" xlink:href="#font_1_83" transform="matrix(9.9626,0,0,-9.962899,103.009,220.44126)"/>
<use data-text="1" xlink:href="#font_1_82" transform="matrix(9.9626,0,0,-9.962899,109.79353,220.44126)"/>
<path transform="matrix(1,0,0,-1.00003,9.678001,117.822177)" stroke-width=".3985" stroke-linecap="butt" stroke-miterlimit="10" stroke-linejoin="miter" fill="none" stroke="#000000" d="M51.30037-87.23463 89.81102-96.86452"/>
<use data-text="H" xlink:href="#font_1_62" transform="matrix(9.9626,0,0,-9.962899,159.35901,234.61469)"/>
<use data-text="1" xlink:href="#font_1_82" transform="matrix(9.9626,0,0,-9.962899,166.83095,234.61469)"/>
<path transform="matrix(1,0,0,-1.00003,9.678001,117.822177)" stroke-width=".3985" stroke-linecap="butt" stroke-miterlimit="10" stroke-linejoin="miter" fill="none" stroke="#000000" d="M108.61668-101.56348 146.16094-110.95201"/>
<use data-text="H" xlink:href="#font_1_62" transform="matrix(9.9626,0,0,-9.962899,159.35901,220.44126)"/>
<use data-text="2" xlink:href="#font_1_107" transform="matrix(9.9626,0,0,-9.962899,166.83095,220.44126)"/>
<path transform="matrix(1,0,0,-1.00003,9.678001,117.822177)" stroke-width=".3985" stroke-linecap="butt" stroke-miterlimit="10" stroke-linejoin="miter" fill="none" stroke="#000000" d="M108.61668-99.21379 146.16094-99.21376"/>
<use data-text="H" xlink:href="#font_1_62" transform="matrix(9.9626,0,0,-9.962899,187.706,206.15784)"/>
<use data-text="3" xlink:href="#font_1_106" transform="matrix(9.9626,0,0,-9.962899,195.17795,206.15784)"/>
<path transform="matrix(1,0,0,-1.00003,9.678001,117.822177)" stroke-width=".3985" stroke-linecap="butt" stroke-miterlimit="10" stroke-linejoin="miter" fill="none" stroke="#000000" d="M108.61668-97.64676 174.50774-86.66306"/>
<use data-text="P" xlink:href="#font_1_83" transform="matrix(9.9626,0,0,-9.962899,103.009,192.0934)"/>
<use data-text="2" xlink:href="#font_1_107" transform="matrix(9.9626,0,0,-9.962899,109.79353,192.0934)"/>
<path transform="matrix(1,0,0,-1.00003,9.678001,117.822177)" stroke-width=".3985" stroke-linecap="butt" stroke-miterlimit="10" stroke-linejoin="miter" fill="none" stroke="#000000" d="M51.30037-82.84618 89.81102-73.21625"/>
<use data-text="H" xlink:href="#font_1_62" transform="matrix(9.9626,0,0,-9.962899,159.35901,206.26782)"/>
<use data-text="1" xlink:href="#font_1_82" transform="matrix(9.9626,0,0,-9.962899,166.83095,206.26782)"/>
<path transform="matrix(1,0,0,-1.00003,9.678001,117.822177)" stroke-width=".3985" stroke-linecap="butt" stroke-miterlimit="10" stroke-linejoin="miter" fill="none" stroke="#000000" d="M108.61668-73.21667 146.16094-82.60521"/>
<use data-text="H" xlink:href="#font_1_62" transform="matrix(9.9626,0,0,-9.962899,159.35901,192.0934)"/>
<use data-text="2" xlink:href="#font_1_107" transform="matrix(9.9626,0,0,-9.962899,166.83095,192.0934)"/>
<path transform="matrix(1,0,0,-1.00003,9.678001,117.822177)" stroke-width=".3985" stroke-linecap="butt" stroke-miterlimit="10" stroke-linejoin="miter" fill="none" stroke="#000000" d="M108.61668-70.86697 146.16094-70.86694"/>
<use data-text="H" xlink:href="#font_1_62" transform="matrix(9.9626,0,0,-9.962899,187.706,177.80997)"/>
<use data-text="3" xlink:href="#font_1_106" transform="matrix(9.9626,0,0,-9.962899,195.17795,177.80997)"/>
<path transform="matrix(1,0,0,-1.00003,9.678001,117.822177)" stroke-width=".3985" stroke-linecap="butt" stroke-miterlimit="10" stroke-linejoin="miter" fill="none" stroke="#000000" d="M108.61668-69.29994 174.50774-58.31624"/>
<use data-text="S" xlink:href="#font_1_97" transform="matrix(9.9626,0,0,-9.962899,46.938,149.57213)"/>
<use data-text="3" xlink:href="#font_1_106" transform="matrix(9.9626,0,0,-9.962899,52.477209,149.57213)"/>
<path transform="matrix(1,0,0,-1.00003,9.678001,117.822177)" stroke-width=".3985" stroke-linecap="butt" stroke-miterlimit="10" stroke-linejoin="miter" fill="none" stroke="#000000" d="M11.91187-7.94327 33.74005-22.49557"/>
<use data-text="P" xlink:href="#font_1_83" transform="matrix(9.9626,0,0,-9.962899,103.009,163.74556)"/>
<use data-text="1" xlink:href="#font_1_82" transform="matrix(9.9626,0,0,-9.962899,109.79353,163.74556)"/>
<path transform="matrix(1,0,0,-1.00003,9.678001,117.822177)" stroke-width=".3985" stroke-linecap="butt" stroke-miterlimit="10" stroke-linejoin="miter" fill="none" stroke="#000000" d="M51.30037-30.541 89.81102-40.17088"/>
<use data-text="H" xlink:href="#font_1_62" transform="matrix(9.9626,0,0,-9.962899,159.35901,177.91999)"/>
<use data-text="1" xlink:href="#font_1_82" transform="matrix(9.9626,0,0,-9.962899,166.83095,177.91999)"/>
<path transform="matrix(1,0,0,-1.00003,9.678001,117.822177)" stroke-width=".3985" stroke-linecap="butt" stroke-miterlimit="10" stroke-linejoin="miter" fill="none" stroke="#000000" d="M108.61668-44.86984 146.16094-54.25838"/>
<use data-text="H" xlink:href="#font_1_62" transform="matrix(9.9626,0,0,-9.962899,159.35901,163.74556)"/>
<use data-text="2" xlink:href="#font_1_107" transform="matrix(9.9626,0,0,-9.962899,166.83095,163.74556)"/>
<path transform="matrix(1,0,0,-1.00003,9.678001,117.822177)" stroke-width=".3985" stroke-linecap="butt" stroke-miterlimit="10" stroke-linejoin="miter" fill="none" stroke="#000000" d="M108.61668-42.52016 146.16094-42.52013"/>
<use data-text="H" xlink:href="#font_1_62" transform="matrix(9.9626,0,0,-9.962899,187.706,149.46213)"/>
<use data-text="3" xlink:href="#font_1_106" transform="matrix(9.9626,0,0,-9.962899,195.17795,149.46213)"/>
<path transform="matrix(1,0,0,-1.00003,9.678001,117.822177)" stroke-width=".3985" stroke-linecap="butt" stroke-miterlimit="10" stroke-linejoin="miter" fill="none" stroke="#000000" d="M108.61668-40.95313 174.50774-29.96942"/>
<use data-text="P" xlink:href="#font_1_83" transform="matrix(9.9626,0,0,-9.962899,103.009,135.3987)"/>
<use data-text="2" xlink:href="#font_1_107" transform="matrix(9.9626,0,0,-9.962899,109.79353,135.3987)"/>
<path transform="matrix(1,0,0,-1.00003,9.678001,117.822177)" stroke-width=".3985" stroke-linecap="butt" stroke-miterlimit="10" stroke-linejoin="miter" fill="none" stroke="#000000" d="M51.30037-26.15254 89.81102-16.52261"/>
<use data-text="H" xlink:href="#font_1_62" transform="matrix(9.9626,0,0,-9.962899,159.35901,149.57213)"/>
<use data-text="1" xlink:href="#font_1_82" transform="matrix(9.9626,0,0,-9.962899,166.83095,149.57213)"/>
<path transform="matrix(1,0,0,-1.00003,9.678001,117.822177)" stroke-width=".3985" stroke-linecap="butt" stroke-miterlimit="10" stroke-linejoin="miter" fill="none" stroke="#000000" d="M108.61668-16.52304 146.16094-25.91156"/>
<use data-text="H" xlink:href="#font_1_62" transform="matrix(9.9626,0,0,-9.962899,159.35901,135.3987)"/>
<use data-text="2" xlink:href="#font_1_107" transform="matrix(9.9626,0,0,-9.962899,166.83095,135.3987)"/>
<path transform="matrix(1,0,0,-1.00003,9.678001,117.822177)" stroke-width=".3985" stroke-linecap="butt" stroke-miterlimit="10" stroke-linejoin="miter" fill="none" stroke="#000000" d="M108.61668-14.17334 146.16094-14.17331"/>
<use data-text="H" xlink:href="#font_1_62" transform="matrix(9.9626,0,0,-9.962899,187.706,121.11527)"/>
<use data-text="3" xlink:href="#font_1_106" transform="matrix(9.9626,0,0,-9.962899,195.17795,121.11527)"/>
<path transform="matrix(1,0,0,-1.00003,9.678001,117.822177)" stroke-width=".3985" stroke-linecap="butt" stroke-miterlimit="10" stroke-linejoin="miter" fill="none" stroke="#000000" d="M108.61668-12.60631 174.50774-1.6226"/>
<use data-text="S" xlink:href="#font_1_97" transform="matrix(9.9626,0,0,-9.962899,46.938,92.87643)"/>
<use data-text="2" xlink:href="#font_1_107" transform="matrix(9.9626,0,0,-9.962899,52.477209,92.87643)"/>
<path transform="matrix(1,0,0,-1.00003,9.678001,117.822177)" stroke-width=".3985" stroke-linecap="butt" stroke-miterlimit="10" stroke-linejoin="miter" fill="none" stroke="#000000" d="M11.91187 7.94327 33.74005 22.49551"/>
<use data-text="P" xlink:href="#font_1_83" transform="matrix(9.9626,0,0,-9.962899,103.009,107.05085)"/>
<use data-text="1" xlink:href="#font_1_82" transform="matrix(9.9626,0,0,-9.962899,109.79353,107.05085)"/>
<path transform="matrix(1,0,0,-1.00003,9.678001,117.822177)" stroke-width=".3985" stroke-linecap="butt" stroke-miterlimit="10" stroke-linejoin="miter" fill="none" stroke="#000000" d="M51.30037 26.15262 89.81102 16.52274"/>
<use data-text="H" xlink:href="#font_1_62" transform="matrix(9.9626,0,0,-9.962899,159.35901,121.22427)"/>
<use data-text="1" xlink:href="#font_1_82" transform="matrix(9.9626,0,0,-9.962899,166.83095,121.22427)"/>
<path transform="matrix(1,0,0,-1.00003,9.678001,117.822177)" stroke-width=".3985" stroke-linecap="butt" stroke-miterlimit="10" stroke-linejoin="miter" fill="none" stroke="#000000" d="M108.61668 11.82378 146.16094 2.43524"/>
<use data-text="H" xlink:href="#font_1_62" transform="matrix(9.9626,0,0,-9.962899,159.35901,107.05085)"/>
<use data-text="2" xlink:href="#font_1_107" transform="matrix(9.9626,0,0,-9.962899,166.83095,107.05085)"/>
<path transform="matrix(1,0,0,-1.00003,9.678001,117.822177)" stroke-width=".3985" stroke-linecap="butt" stroke-miterlimit="10" stroke-linejoin="miter" fill="none" stroke="#000000" d="M108.61668 14.17346 146.16094 14.1735"/>
<use data-text="H" xlink:href="#font_1_62" transform="matrix(9.9626,0,0,-9.962899,187.706,92.76742)"/>
<use data-text="3" xlink:href="#font_1_106" transform="matrix(9.9626,0,0,-9.962899,195.17795,92.76742)"/>
<path transform="matrix(1,0,0,-1.00003,9.678001,117.822177)" stroke-width=".3985" stroke-linecap="butt" stroke-miterlimit="10" stroke-linejoin="miter" fill="none" stroke="#000000" d="M108.61668 15.7405 174.50774 26.7242"/>
<use data-text="P" xlink:href="#font_1_83" transform="matrix(9.9626,0,0,-9.962899,103.009,78.703)"/>
<use data-text="2" xlink:href="#font_1_107" transform="matrix(9.9626,0,0,-9.962899,109.79353,78.703)"/>
<path transform="matrix(1,0,0,-1.00003,9.678001,117.822177)" stroke-width=".3985" stroke-linecap="butt" stroke-miterlimit="10" stroke-linejoin="miter" fill="none" stroke="#000000" d="M51.30037 30.54108 89.81102 40.171"/>
<use data-text="H" xlink:href="#font_1_62" transform="matrix(9.9626,0,0,-9.962899,159.35901,92.87643)"/>
<use data-text="1" xlink:href="#font_1_82" transform="matrix(9.9626,0,0,-9.962899,166.83095,92.87643)"/>
<path transform="matrix(1,0,0,-1.00003,9.678001,117.822177)" stroke-width=".3985" stroke-linecap="butt" stroke-miterlimit="10" stroke-linejoin="miter" fill="none" stroke="#000000" d="M108.61668 40.17058 146.16094 30.78206"/>
<use data-text="H" xlink:href="#font_1_62" transform="matrix(9.9626,0,0,-9.962899,159.35901,78.703)"/>
<use data-text="2" xlink:href="#font_1_107" transform="matrix(9.9626,0,0,-9.962899,166.83095,78.703)"/>
<path transform="matrix(1,0,0,-1.00003,9.678001,117.822177)" stroke-width=".3985" stroke-linecap="butt" stroke-miterlimit="10" stroke-linejoin="miter" fill="none" stroke="#000000" d="M108.61668 42.52028 146.16094 42.52031"/>
<use data-text="H" xlink:href="#font_1_62" transform="matrix(9.9626,0,0,-9.962899,187.706,64.41957)"/>
<use data-text="3" xlink:href="#font_1_106" transform="matrix(9.9626,0,0,-9.962899,195.17795,64.41957)"/>
<path transform="matrix(1,0,0,-1.00003,9.678001,117.822177)" stroke-width=".3985" stroke-linecap="butt" stroke-miterlimit="10" stroke-linejoin="miter" fill="none" stroke="#000000" d="M108.61668 44.08731 174.50774 55.07101"/>
<use data-text="S" xlink:href="#font_1_97" transform="matrix(9.9626,0,0,-9.962899,46.938,36.181726)"/>
<use data-text="1" xlink:href="#font_1_82" transform="matrix(9.9626,0,0,-9.962899,52.477209,36.181726)"/>
<path transform="matrix(1,0,0,-1.00003,9.678001,117.822177)" stroke-width=".3985" stroke-linecap="butt" stroke-miterlimit="10" stroke-linejoin="miter" fill="none" stroke="#000000" d="M3.97115 7.94327 38.95328 77.8992"/>
<use data-text="P" xlink:href="#font_1_83" transform="matrix(9.9626,0,0,-9.962899,103.009,50.35515)"/>
<use data-text="1" xlink:href="#font_1_82" transform="matrix(9.9626,0,0,-9.962899,109.79353,50.35515)"/>
<path transform="matrix(1,0,0,-1.00003,9.678001,117.822177)" stroke-width=".3985" stroke-linecap="butt" stroke-miterlimit="10" stroke-linejoin="miter" fill="none" stroke="#000000" d="M51.30037 82.84625 89.81102 73.21637"/>
<use data-text="H" xlink:href="#font_1_62" transform="matrix(9.9626,0,0,-9.962899,159.35901,64.52957)"/>
<use data-text="1" xlink:href="#font_1_82" transform="matrix(9.9626,0,0,-9.962899,166.83095,64.52957)"/>
<path transform="matrix(1,0,0,-1.00003,9.678001,117.822177)" stroke-width=".3985" stroke-linecap="butt" stroke-miterlimit="10" stroke-linejoin="miter" fill="none" stroke="#000000" d="M108.61668 68.51741 146.16094 59.12888"/>
<use data-text="H" xlink:href="#font_1_62" transform="matrix(9.9626,0,0,-9.962899,159.35901,50.35515)"/>
<use data-text="2" xlink:href="#font_1_107" transform="matrix(9.9626,0,0,-9.962899,166.83095,50.35515)"/>
<path transform="matrix(1,0,0,-1.00003,9.678001,117.822177)" stroke-width=".3985" stroke-linecap="butt" stroke-miterlimit="10" stroke-linejoin="miter" fill="none" stroke="#000000" d="M108.61668 70.8671 146.16094 70.86713"/>
<use data-text="H" xlink:href="#font_1_62" transform="matrix(9.9626,0,0,-9.962899,187.706,36.071718)"/>
<use data-text="3" xlink:href="#font_1_106" transform="matrix(9.9626,0,0,-9.962899,195.17795,36.071718)"/>
<path transform="matrix(1,0,0,-1.00003,9.678001,117.822177)" stroke-width=".3985" stroke-linecap="butt" stroke-miterlimit="10" stroke-linejoin="miter" fill="none" stroke="#000000" d="M108.61668 72.43414 174.50774 83.41783"/>
<use data-text="P" xlink:href="#font_1_83" transform="matrix(9.9626,0,0,-9.962899,103.009,22.007302)"/>
<use data-text="2" xlink:href="#font_1_107" transform="matrix(9.9626,0,0,-9.962899,109.79353,22.007302)"/>
<path transform="matrix(1,0,0,-1.00003,9.678001,117.822177)" stroke-width=".3985" stroke-linecap="butt" stroke-miterlimit="10" stroke-linejoin="miter" fill="none" stroke="#000000" d="M51.30037 87.23471 89.81102 96.86464"/>
<use data-text="H" xlink:href="#font_1_62" transform="matrix(9.9626,0,0,-9.962899,159.35901,36.181726)"/>
<use data-text="1" xlink:href="#font_1_82" transform="matrix(9.9626,0,0,-9.962899,166.83095,36.181726)"/>
<path transform="matrix(1,0,0,-1.00003,9.678001,117.822177)" stroke-width=".3985" stroke-linecap="butt" stroke-miterlimit="10" stroke-linejoin="miter" fill="none" stroke="#000000" d="M108.61668 96.86421 146.16094 87.4757"/>
<use data-text="H" xlink:href="#font_1_62" transform="matrix(9.9626,0,0,-9.962899,159.35901,22.007302)"/>
<use data-text="2" xlink:href="#font_1_107" transform="matrix(9.9626,0,0,-9.962899,166.83095,22.007302)"/>
<path transform="matrix(1,0,0,-1.00003,9.678001,117.822177)" stroke-width=".3985" stroke-linecap="butt" stroke-miterlimit="10" stroke-linejoin="miter" fill="none" stroke="#000000" d="M108.61668 99.21391 146.16094 99.21394"/>
<use data-text="H" xlink:href="#font_1_62" transform="matrix(9.9626,0,0,-9.962899,159.35901,7.7238695)"/>
<use data-text="3" xlink:href="#font_1_106" transform="matrix(9.9626,0,0,-9.962899,166.83095,7.7238695)"/>
<path transform="matrix(1,0,0,-1.00003,9.678001,117.822177)" stroke-width=".3985" stroke-linecap="butt" stroke-miterlimit="10" stroke-linejoin="miter" fill="none" stroke="#000000" d="M108.61668 101.5636 146.16094 110.9522"/>
</svg>
