<svg xmlns="http://www.w3.org/2000/svg" xmlns:xlink="http://www.w3.org/1999/xlink" version="1.1" width="123" height="118" viewBox="0 0 123 118">
<defs>
<path id="font_1_1" d="M.1789856 .114868167C.13899231 .047973634 .099990848 .033981325 .055999757 .0309906 .04399109 .02999878 .034988405 .02999878 .034988405 .010986328 .034988405 .004989624 .039993287 0 .04798889 0 .07499695 0 .10598755 .0029907227 .13398743 .0029907227 .16699219 .0029907227 .20199585 0 .23399353 0 .23999024 0 .25299073 0 .25299073 .018997193 .25299073 .02999878 .24398804 .0309906 .23699951 .0309906 .21398926 .032989503 .18998719 .04096985 .18998719 .06593323 .18998719 .077926639 .19599915 .088897708 .20399475 .102890018L.27999879 .23068238H.5309906C.5329895 .2097168 .5469971 .07392883 .5469971 .063949588 .5469971 .033981325 .49499513 .0309906 .47499085 .0309906 .46099855 .0309906 .45098878 .0309906 .45098878 .010986328 .45098878 0 .46299745 0 .46499635 0 .5059967 0 .548996 .0029907227 .58999636 .0029907227 .61499026 .0029907227 .6779938 0 .7029877 0 .70899966 0 .72099307 0 .72099307 .019989014 .72099307 .0309906 .71099856 .0309906 .69799807 .0309906 .6359863 .0309906 .6359863 .037979127 .6329956 .06694031L.57199099 .691803C.56999209 .71180728 .56999209 .7158203 .5529938 .7158203 .5369873 .7158203 .5329895 .7088165 .5269928 .69880679L.1789856 .114868167M.29899598 .26168824 .49598695 .5917816 .5279999 .26168824H.29899598Z"/>
<path id="font_1_2" d="M.1599884 .07795715C.1499939 .038986207 .147995 .0309906 .068984989 .0309906 .051986696 .0309906 .041992189 .0309906 .041992189 .010986328 .041992189 0 .050994874 0 .068984989 0H.42599488C.58399966 0 .70199587 .11791992 .70199587 .21585083 .70199587 .28778077 .6439972 .3457489 .5469971 .35673524 .651001 .37573243 .7559967 .44970704 .7559967 .5446625 .7559967 .6186218 .6899872 .6826172 .56999209 .6826172H.23399353C.21499634 .6826172 .20498657 .6826172 .20498657 .6626129 .20498657 .6516113 .21398926 .6516113 .23298645 .6516113 .23498535 .6516113 .2539978 .6516113 .2709961 .6496124 .2889862 .6476135 .2979889 .64660647 .2979889 .6336212 .2979889 .6296234 .29699708 .62661746 .2939911 .614624L.1599884 .07795715M.31098939 .36573792 .37298585 .6136322C.38198854 .64860537 .38398744 .6516113 .4269867 .6516113H.55599978C.6439972 .6516113 .6649933 .5926361 .6649933 .5486603 .6649933 .46069337 .57899478 .36573792 .45700074 .36573792H.31098939M.2659912 .0309906C.2519989 .0309906 .25 .0309906 .24398804 .03199768 .23399353 .032989503 .23098755 .033996583 .23098755 .04197693 .23098755 .04498291 .23098755 .04698181 .23599243 .064971927L.30499269 .34375H.49398805C.58999636 .34375 .60899356 .2698059 .60899356 .22683716 .60899356 .12791443 .519989 .0309906 .4019928 .0309906H.2659912Z"/>
<path id="font_1_3" d="M.7599945 .69506838C.7599945 .69807437 .7579956 .7050781 .7489929 .7050781 .74598696 .7050781 .7449951 .70407107 .73399356 .69306948L.6639862 .61602786C.6549988 .6300354 .60899356 .7050781 .49798585 .7050781 .2749939 .7050781 .049987794 .48391725 .049987794 .25172425 .049987794 .08659363 .16799927-.022460938 .32099916-.022460938 .4079895-.022460938 .48399354 .017532349 .5369873 .063583377 .6299896 .14564514 .6469879 .2367096 .6469879 .23971558 .6469879 .24972534 .6369934 .24972534 .6349945 .24972534 .6289978 .24972534 .6239929 .24772644 .621994 .23971558 .61299136 .21069336 .58999636 .13963318 .5209961 .081588748 .45199586 .025543213 .3889923 .008529663 .33699037 .008529663 .24699402 .008529663 .14099121 .060577394 .14099121 .21670532 .14099121 .27374269 .1619873 .43588258 .2619934 .55296328 .32299806 .62402346 .4169922 .67407229 .5059967 .67407229 .60798647 .67407229 .6669922 .5970001 .6669922 .48091126 .6669922 .44088746 .6639862 .43988038 .6639862 .4298706 .6639862 .41986085 .6749878 .41986085 .67900088 .41986085 .69200137 .41986085 .69200137 .42185975 .69699099 .43988038L.7599945 .69506838Z"/>
<path id="font_2_1" d="M.17399597 .26316834C.16499329 .27716065 .1639862 .27816773 .1579895 .27816773 .1349945 .27816773 .083999637 .24617005 .083999637 .2291565 .083999637 .2271576 .083999637 .22515869 .09199524 .2121582L.21899414 .0031280518C.22399903-.005859375 .23399353-.021865845 .23498535-.022872925 .23699951-.026870728 .24198914-.026870728 .24699402-.026870728 .2679901-.026870728 .31498719 .0001373291 .31999208 .021133423 .35198976 .17115784 .41099549 .31417848 .5009918 .43818666 .5519867 .50819399 .6199951 .587204 .71899417 .6612091 .73599246 .6742096 .7480011 .6832123 .7480011 .69221499 .7480011 .69921877 .7429962 .69921877 .7369995 .69921877 .6899872 .69921877 .5469971 .564209 .48999024 .49719239 .3880005 .377182 .32099916 .26316834 .2679901 .10914612L.17399597 .26316834Z"/>
<path id="font_1_4" d="M.6349945 .5776062C.644989 .61860659 .6629944 .64860537 .7429962 .6516113 .7480011 .6516113 .7599945 .65260317 .7599945 .6716156 .7599945 .6726074 .7599945 .6826172 .746994 .6826172 .71398928 .6826172 .67900088 .6796112 .644989 .6796112 .61099246 .6796112 .57398989 .6826172 .54100039 .6826172 .5349884 .6826172 .522995 .6826172 .522995 .6626129 .522995 .6516113 .5329895 .6516113 .54100039 .6516113 .59799197 .65060427 .60899356 .62960818 .60899356 .607605 .60899356 .604599 .6069946 .5895996 .60598757 .5866089L.5159912 .22955323C.48199464 .09553528 .36698915 .008529663 .2669983 .008529663 .19898987 .008529663 .14498902 .05253601 .14498902 .1385498 .14498902 .1405487 .14498902 .17254639 .1559906 .21655274L.25299073 .6056061C.2619934 .64160159 .2639923 .6516113 .33699037 .6516113 .36299134 .6516113 .37098695 .6516113 .37098695 .6716156 .37098695 .6826172 .3600006 .6826172 .35699464 .6826172 .32899476 .6826172 .25698854 .6796112 .22898865 .6796112 .19999695 .6796112 .1289978 .6826172 .099990848 .6826172 .09199524 .6826172 .08099365 .6826172 .08099365 .6626129 .08099365 .6516113 .08999634 .6516113 .10899353 .6516113 .11099243 .6516113 .12998963 .6516113 .14698792 .6496124 .16499329 .6476135 .17399597 .64660647 .17399597 .63360598 .17399597 .62760928 .16299439 .5856018 .15699768 .56259158L.1349945 .47459413C.12599182 .4355774 .07798767 .24656677 .07398987 .22755432 .066986087 .19955445 .066986087 .18455506 .066986087 .16955567 .066986087 .047531129 .1579895-.022460938 .2630005-.022460938 .3889923-.022460938 .5130005 .090545658 .54599 .2225647L.6349945 .5776062Z"/>
</defs>
<path transform="matrix(1.00005,0,0,-1.00003,44.61827,44.31985)" d="M76.53629-72.0007V42.5202H-42.5202V-72.0007ZM-42.5202 42.5202" fill="#00aeef" fill-opacity=".7"/>
<path transform="matrix(1.00005,0,0,-1.00003,44.61827,44.31985)" stroke-width=".3985" stroke-linecap="butt" stroke-miterlimit="10" stroke-linejoin="miter" fill="none" stroke="#000000" d="M76.53629-72.0007V42.5202H-42.5202V-72.0007ZM-42.5202 42.5202"/>
<path transform="matrix(1.00005,0,0,-1.00003,44.61827,44.31985)" stroke-width=".79701" stroke-linecap="butt" stroke-miterlimit="10" stroke-linejoin="miter" fill="none" stroke="#000000" d="M28.3468 0C28.3468 15.6557 15.6557 28.3468 0 28.3468-15.6557 28.3468-28.3468 15.6557-28.3468 0-28.3468-15.6557-15.6557-28.3468 0-28.3468 15.6557-28.3468 28.3468-15.6557 28.3468 0ZM0 0"/>
<use data-text="A" xlink:href="#font_1_1" transform="matrix(9.963098,0,0,-9.962899,40.882089,12.252884)" fill-opacity=".7"/>
<path transform="matrix(1.00005,0,0,-1.00003,44.61827,44.31985)" stroke-width=".79701" stroke-linecap="butt" stroke-miterlimit="10" stroke-linejoin="miter" fill="none" stroke="#000000" d="M62.36288 0C62.36288 15.6557 49.67178 28.3468 34.01608 28.3468 18.36037 28.3468 5.66927 15.6557 5.66927 0 5.66927-15.6557 18.36037-28.3468 34.01608-28.3468 49.67178-28.3468 62.36288-15.6557 62.36288 0ZM34.01608 0"/>
<use data-text="B" xlink:href="#font_1_2" transform="matrix(9.963098,0,0,-9.962899,74.60777,12.252884)" fill-opacity=".7"/>
<path transform="matrix(1.00005,0,0,-1.00003,44.61827,44.31985)" stroke-width=".79701" stroke-linecap="butt" stroke-miterlimit="10" stroke-linejoin="miter" fill="none" stroke="#000000" d="M45.35506-29.48047C45.35506-13.82477 32.66396-1.13367 17.00824-1.13367 1.35252-1.13367-11.33856-13.82477-11.33856-29.48047-11.33856-45.13618 1.35252-57.82729 17.00824-57.82729 32.66396-57.82729 45.35506-45.13618 45.35506-29.48047ZM17.00824-29.48047"/>
<use data-text="C" xlink:href="#font_1_3" transform="matrix(9.963098,0,0,-9.962899,88.89348,94.214359)" fill-opacity=".7"/>
<use data-text="&#x2713;" xlink:href="#font_2_1" transform="matrix(9.963098,0,0,-9.962899,54.64077,90.28923)" fill-opacity=".7"/>
<use data-text="U" xlink:href="#font_1_4" transform="matrix(9.963098,0,0,-9.962899,6.656372,13.706932)" fill-opacity=".7"/>
<use data-text="&#x2713;" xlink:href="#font_2_1" transform="matrix(9.963098,0,0,-9.962899,82.98918,33.59453)" fill-opacity=".7"/>
<use data-text="&#x2713;" xlink:href="#font_2_1" transform="matrix(9.963098,0,0,-9.962899,12.118645,90.28923)" fill-opacity=".7"/>
</svg>
