<svg xmlns="http://www.w3.org/2000/svg" xmlns:xlink="http://www.w3.org/1999/xlink" version="1.1" width="59" height="20" viewBox="0 0 59 20">
<defs>
<path id="font_1_1" d="M.25498963-.25V-.21000672H.1579895V.70999148H.25498963V.75H.117996219V-.25H.25498963Z"/>
<path id="font_2_2" d="M.37298585 .37835694C.35499574 .41537477 .32598878 .4423828 .2809906 .4423828 .1639862 .4423828 .039993287 .29533387 .039993287 .14929199 .039993287 .055267335 .09498596-.0107421879 .17298889-.0107421879 .19299317-.0107421879 .24299622-.0067443849 .30299378 .06427002 .31098939 .022247315 .34599305-.0107421879 .3939972-.0107421879 .42900086-.0107421879 .45199586 .012252808 .46798707 .044265748 .4850006 .08027649 .49798585 .14129639 .49798585 .14329529 .49798585 .1532898 .4889984 .1532898 .48599244 .1532898 .47599793 .1532898 .47499085 .14929199 .47200013 .13528443 .45498658 .07026672 .43699647 .011245728 .3959961 .011245728 .36898805 .011245728 .3659973 .037261964 .3659973 .057266237 .3659973 .07926941 .36799623 .08728027 .3789978 .13128662 .3899994 .17329407 .3919983 .18330384 .40098573 .22131348L.43699647 .36135865C.44400025 .38935853 .44400025 .39135743 .44400025 .39537049 .44400025 .41236878 .43199159 .42237855 .4149933 .42237855 .3909912 .42237855 .37599183 .4003601 .37298585 .37835694M.30799867 .119277957C.30299378 .10127258 .30299378 .09927368 .28799439 .08227539 .24398804 .027252198 .20298767 .011245728 .1749878 .011245728 .125 .011245728 .11099243 .06626892 .11099243 .105285648 .11099243 .1552887 .14299011 .27833558 .1659851 .32434083 .19699097 .38336183 .24198914 .42037965 .28199769 .42037965 .34700013 .42037965 .36099244 .3383484 .36099244 .33235169 .36099244 .32633973 .35899354 .32034303 .35798646 .31533814L.30799867 .119277957Z"/>
<path id="font_2_1" d="M.20298767 .0009918213C.20298767 .066986087 .17799378 .10598755 .13899231 .10598755 .10598755 .10598755 .085998538 .08099365 .085998538 .052993776 .085998538 .025985718 .10598755 0 .13899231 0 .15098572 0 .1639862 .0039978029 .17399597 .0129852299 .1769867 .01499939 .17799378 .015991211 .1789856 .015991211 .17999268 .015991211 .18099976 .01499939 .18099976 .0009918213 .18099976-.07316589 .1459961-.13328552 .11299133-.16635132 .101989749-.17736817 .101989749-.17936707 .101989749-.18237305 .101989749-.18936157 .10699463-.19335938 .11199951-.19335938 .12298584-.19335938 .20298767-.116256717 .20298767 .0009918213Z"/>
<path id="font_2_3" d="M.23899842 .68333438C.23899842 .6843262 .23899842 .69433596 .22599793 .69433596 .20298767 .69433596 .12998963 .6863251 .10398865 .6843262 .09599304 .68333438 .084991458 .6823273 .084991458 .6643219 .084991458 .6523285 .09399414 .6523285 .10899353 .6523285 .15699768 .6523285 .15899658 .6453247 .15899658 .6353302 .15899658 .6283264 .1499939 .5943451 .14498902 .573349L.06298828 .24731446C.050994874 .1973114 .04699707 .18130493 .04699707 .14628601 .04699707 .05126953 .099990848-.0107421879 .17399597-.0107421879 .2919922-.0107421879 .4149933 .1382904 .4149933 .28233338 .4149933 .37335206 .3619995 .4423828 .28199769 .4423828 .23599243 .4423828 .19499207 .41337586 .16499329 .38235475L.23899842 .68333438M.14498902 .30534364C.15098572 .3273468 .15098572 .3293457 .1599884 .3403473 .20899964 .405365 .2539978 .42037965 .27999879 .42037965 .31599427 .42037965 .34298707 .3903656 .34298707 .32633973 .34298707 .26733399 .30999757 .15229798 .2919922 .11428833 .25898744 .04725647 .21299744 .011245728 .17399597 .011245728 .13999939 .011245728 .10699463 .038253786 .10699463 .11227417 .10699463 .13128662 .10699463 .15029907 .12298584 .21331787L.14498902 .30534364Z"/>
<path id="font_1_2" d="M.15899658 .75H.021987915V.70999148H.11898804V-.21000672H.021987915V-.25H.15899658V.75Z"/>
</defs>
<path transform="matrix(1,0,0,-1,1.0960007,4.634)" stroke-width=".3985" stroke-linecap="butt" stroke-miterlimit="10" stroke-linejoin="miter" fill="none" stroke="#000000" d="M0 0H56.69362"/>
<path transform="matrix(1,0,0,-1,1.0960007,4.634)" d="M17.00824 0C17.00824 1.56564 15.73904 2.83484 14.17339 2.83484 12.60774 2.83484 11.33855 1.56564 11.33855 0 11.33855-1.56564 12.60774-2.83484 14.17339-2.83484 15.73904-2.83484 17.00824-1.56564 17.00824 0ZM14.17339 0"/>
<path transform="matrix(1,0,0,-1,1.0960007,4.634)" stroke-width=".3985" stroke-linecap="butt" stroke-miterlimit="10" stroke-linejoin="miter" fill="none" stroke="#000000" d="M17.00824 0C17.00824 1.56564 15.73904 2.83484 14.17339 2.83484 12.60774 2.83484 11.33855 1.56564 11.33855 0 11.33855-1.56564 12.60774-2.83484 14.17339-2.83484 15.73904-2.83484 17.00824-1.56564 17.00824 0ZM14.17339 0"/>
<path transform="matrix(1,0,0,-1,1.0960007,4.634)" d="M45.35506 0C45.35506 1.56564 44.08585 2.83484 42.5202 2.83484 40.95454 2.83484 39.68535 1.56564 39.68535 0 39.68535-1.56564 40.95454-2.83484 42.5202-2.83484 44.08585-2.83484 45.35506-1.56564 45.35506 0ZM42.5202 0"/>
<path transform="matrix(1,0,0,-1,1.0960007,4.634)" stroke-width=".3985" stroke-linecap="butt" stroke-miterlimit="10" stroke-linejoin="miter" fill="none" stroke="#000000" d="M45.35506 0C45.35506 1.56564 44.08585 2.83484 42.5202 2.83484 40.95454 2.83484 39.68535 1.56564 39.68535 0 39.68535-1.56564 40.95454-2.83484 42.5202-2.83484 44.08585-2.83484 45.35506-1.56564 45.35506 0ZM42.5202 0"/>
<path transform="matrix(1,0,0,-1,1.0960007,4.634)" stroke-width="1.19553" stroke-linecap="butt" stroke-miterlimit="10" stroke-linejoin="miter" fill="none" stroke="#ff0000" d="M15.59082 0H41.10277"/>
<use data-text="[" xlink:href="#font_1_1" transform="matrix(9.9626,0,0,-9.9626,20.592003,15.628999)"/>
<use data-text="a" xlink:href="#font_2_2" transform="matrix(9.9626,0,0,-9.9626,23.359002,15.628999)"/>
<use data-text="," xlink:href="#font_2_1" transform="matrix(9.9626,0,0,-9.9626,28.619256,15.628999)"/>
<use data-text="b" xlink:href="#font_2_3" transform="matrix(9.9626,0,0,-9.9626,33.032693,15.628999)"/>
<use data-text="]" xlink:href="#font_1_2" transform="matrix(9.9626,0,0,-9.9626,37.329004,15.628999)"/>
</svg>
