<svg xmlns="http://www.w3.org/2000/svg" xmlns:xlink="http://www.w3.org/1999/xlink" version="1.1" width="215" height="174" viewBox="0 0 215 174">
<defs>
<clipPath id="clip_1">
<path transform="matrix(1.00006,0,0,-1.00003,9.862686,169.76273)" d="M0 0H194.27332V161.3918H0Z"/>
</clipPath>
<path id="font_2_74" d="M.8789978 0V.0309906H.8549957C.7779999 .0309906 .776001 .041992189 .776001 .07795715V.6046295C.776001 .64060977 .7779999 .6516113 .8549957 .6516113H.8789978V.6826172H.70999148C.6839905 .6826172 .6839905 .6816101 .6769867 .66360476L.45799256 .10095215 .24099732 .660614C.23199463 .6826172 .22898865 .6826172 .20599365 .6826172H.036987306V.6516113H.06098938C.13798523 .6516113 .13999939 .64060977 .13999939 .6046295V.10494995C.13999939 .07795715 .13999939 .0309906 .036987306 .0309906V0L.1539917 .0029907227 .2709961 0V.0309906C.16799927 .0309906 .16799927 .07795715 .16799927 .10494995V.6436157H.16899109L.4099884 .021987915C.4149933 .008987427 .41999818 0 .42999269 0 .44099427 0 .44400025 .0079956059 .44799806 .018997193L.69400027 .6516113H.69499209V.07795715C.69499209 .041992189 .69299319 .0309906 .6159973 .0309906H.59199526V0C.6289978 .0029907227 .69699099 .0029907227 .73599246 .0029907227 .7749939 .0029907227 .84199526 .0029907227 .8789978 0Z"/>
<path id="font_2_50" d="M.4149933 .11933899C.4149933 .12934876 .40699769 .13134766 .4019928 .13134766 .3929901 .13134766 .3909912 .12535095 .3889923 .11734009 .35398866 .014251709 .2639923 .014251709 .2539978 .014251709 .20399475 .014251709 .1639862 .044281007 .14099121 .08131409 .11099243 .12934876 .11099243 .19540406 .11099243 .23144531H.3899994C.4119873 .23144531 .4149933 .23144531 .4149933 .2524414 .4149933 .35131837 .36099244 .4482422 .23599243 .4482422 .11999512 .4482422 .027999878 .34532167 .027999878 .22042847 .027999878 .08631897 .1329956-.0107421879 .24798584-.0107421879 .36999513-.0107421879 .4149933 .10032654 .4149933 .11933899M.34899903 .2524414H.11199951C.117996219 .40126039 .20199585 .426239 .23599243 .426239 .33898927 .426239 .34899903 .2913971 .34899903 .2524414Z"/>
<path id="font_2_47" d="M.5269928 0V.0309906C.45700074 .0309906 .44898988 .038009645 .44898988 .0871582V.69433596L.30499269 .6826172V.6516113C.375 .6516113 .3829956 .64463809 .3829956 .59580996V.38035584C.35398866 .41636659 .31098939 .4423828 .25698854 .4423828 .13899231 .4423828 .033996583 .3443451 .033996583 .21531677 .033996583 .088272098 .13198853-.0107421879 .24598694-.0107421879 .30999757-.0107421879 .35499574 .023254395 .37998963 .055267335V-.0107421879L.5269928 0M.37998963 .117996219C.37998963 .099990848 .37998963 .09799194 .36898805 .08099365 .33898927 .033218385 .2939911 .011245728 .25099183 .011245728 .20599365 .011245728 .16999817 .037216188 .1459961 .075164798 .11999512 .1161499 .116989139 .17320252 .116989139 .21421814 .116989139 .25125123 .11898804 .31129457 .147995 .35632325 .16899109 .38734437 .20698548 .42037965 .26098634 .42037965 .29599 .42037965 .33799745 .405365 .36898805 .3603363 .37998963 .34332276 .37998963 .34132386 .37998963 .32330323V.117996219Z"/>
<path id="font_2_66" d="M.24699402 0V.0309906C.18099976 .0309906 .1769867 .035995485 .1769867 .075042728V.4423828L.036987306 .43066407V.3996582C.101989749 .3996582 .11099243 .3936615 .11099243 .3447113V.07595825C.11099243 .0309906 .099990848 .0309906 .032989503 .0309906V0L.14299011 .0029907227C.17799378 .0029907227 .21299744 .0009918213 .24699402 0M.19198609 .603775C.19198609 .6307678 .16899109 .6567688 .13899231 .6567688 .10499573 .6567688 .084991458 .6287689 .084991458 .603775 .084991458 .57676699 .10798645 .55078127 .13798523 .55078127 .17199707 .55078127 .19198609 .5787811 .19198609 .603775Z"/>
<path id="font_2_28" d="M.48298646 .08912659V.14511109H.45799256V.08912659C.45799256 .03112793 .43299867 .025131226 .42199708 .025131226 .3889923 .025131226 .3849945 .070129398 .3849945 .07511902V.27508546C.3849945 .31707765 .3849945 .3560791 .34899903 .39312745 .30999757 .43223573 .2599945 .4482422 .21199036 .4482422 .12998963 .4482422 .06098938 .40115357 .06098938 .335083 .06098938 .30508424 .08099365 .28808595 .10699463 .28808595 .1349945 .28808595 .15299988 .30807496 .15299988 .33407594 .15299988 .3460846 .147995 .37908937 .101989749 .38008119 .1289978 .41519166 .17799378 .426239 .20999146 .426239 .25898744 .426239 .31599427 .38710023 .31599427 .29808045V.26107789C.2649994 .25808717 .19499207 .25508119 .13198853 .22509766 .056991579 .19110108 .03199768 .13911438 .03199768 .09512329 .03199768 .014251709 .1289978-.0107421879 .19198609-.0107421879 .2579956-.0107421879 .3039856 .029251099 .32299806 .07624817 .32699586 .036132814 .35398866-.005859375 .40098573-.005859375 .42199708-.005859375 .48298646 .008132935 .48298646 .08912659M.31599427 .14013672C.31599427 .04525757 .24398804 .011245728 .19898987 .011245728 .1499939 .011245728 .10899353 .04624939 .10899353 .09625244 .10899353 .15124512 .15098572 .23425293 .31599427 .24024964V.14013672Z"/>
<path id="font_2_77" d="M.5349884 0V.0309906C.48298646 .0309906 .45799256 .0309906 .45700074 .061019899V.25221253C.45700074 .3383026 .45700074 .36932374 .42599488 .405365 .4119873 .42237855 .3789978 .4423828 .32099916 .4423828 .24798584 .4423828 .20098877 .39935304 .17298889 .33729554V.4423828L.03199768 .43066407V.3996582C.101989749 .3996582 .10998535 .39266969 .10998535 .34370423V.07595825C.10998535 .0309906 .09899902 .0309906 .03199768 .0309906V0L.14498902 .0029907227 .25698854 0V.0309906C.18998719 .0309906 .1789856 .0309906 .1789856 .07595825V.25978089C.1789856 .36431886 .25 .42037965 .31399537 .42037965 .3769989 .42037965 .3880005 .36631776 .3880005 .30926515V.076034549C.3880005 .0309906 .3769989 .0309906 .30999757 .0309906V0L.4229889 .0029907227 .5349884 0Z"/>
<path id="font_2_81" d="M.47099305 .21424866C.47099305 .34223939 .37098695 .4482422 .25 .4482422 .125 .4482422 .027999878 .3392334 .027999878 .21424866 .027999878 .085250858 .13198853-.0107421879 .24899292-.0107421879 .36999513-.0107421879 .47099305 .087249759 .47099305 .21424866M.3880005 .22224427C.3880005 .18624878 .3880005 .13224793 .3659973 .08824158 .34399415 .04324341 .2999878 .014251709 .25 .014251709 .20698548 .014251709 .16299439 .035247804 .13598633 .08125305 .11099243 .12524414 .11099243 .18624878 .11099243 .22224427 .11099243 .26124574 .11099243 .31523133 .1349945 .35923768 .1619873 .40522767 .20899964 .426239 .24899292 .426239 .29299928 .426239 .33599855 .40423585 .3619995 .36123658 .3880005 .3182373 .3880005 .26023866 .3880005 .22224427Z"/>
<path id="font_3_1" d="M.36698915 .3996582H.45298768C.47299195 .3996582 .48298646 .3996582 .48298646 .41966249 .48298646 .43066407 .47299195 .43066407 .45599366 .43066407H.37298585L.3939972 .5449524C.397995 .5660095 .4119873 .6370239 .41799928 .6490326 .4269867 .66804507 .44400025 .68307498 .46499635 .68307498 .46899415 .68307498 .49499513 .68307498 .5139923 .66503909 .46998597 .661026 .45999146 .6260376 .45999146 .6110382 .45999146 .58802798 .47799684 .57603457 .49699403 .57603457 .522995 .57603457 .5519867 .5980377 .5519867 .6360321 .5519867 .6820679 .5059967 .7050781 .46499635 .7050781 .43099977 .7050781 .36799623 .68707278 .33799745 .58802798 .33198548 .56700137 .32899476 .5569763 .30499269 .43066407H.23599243C.21699524 .43066407 .20599365 .43066407 .20599365 .4116516 .20599365 .3996582 .21499634 .3996582 .23399353 .3996582H.2999878L.22499085 .0048828127C.20698548-.09207153 .18998719-.18309021 .13798523-.18309021 .13398743-.18309021 .10899353-.18309021 .08999634-.16506958 .13598633-.1620636 .14498902-.12606812 .14498902-.111068729 .14498902-.08807373 .1269989-.07606506 .10798645-.07606506 .08198547-.07606506 .052993776-.09806824 .052993776-.13606262 .052993776-.18109131 .09700012-.20507813 .13798523-.20507813 .19299317-.20507813 .23298645-.14607239 .25099183-.108062747 .2829895-.04508972 .30599977 .07583618 .30699159 .082839969L.36698915 .3996582Z"/>
<path id="font_3_2" d="M.33399964 .30233766C.33999635 .32835389 .36299134 .42037965 .43299867 .42037965 .43798829 .42037965 .46199037 .42037965 .48298646 .40734864 .45498658 .402359 .43499757 .37734986 .43499757 .35334779 .43499757 .33735658 .44599916 .31835938 .47299195 .31835938 .49499513 .31835938 .5269928 .3363495 .5269928 .37635804 .5269928 .42837525 .46798707 .4423828 .43399049 .4423828 .37599183 .4423828 .34098817 .38935853 .32899476 .36634828 .3039856 .43237306 .25 .4423828 .22099304 .4423828 .116989139 .4423828 .05999756 .3133545 .05999756 .28834535 .05999756 .27833558 .069992069 .27833558 .07199097 .27833558 .07998657 .27833558 .08299255 .28033448 .084991458 .28933717 .11898804 .39535523 .18499756 .42037965 .21899414 .42037965 .23799134 .42037965 .272995 .4113617 .272995 .35334779 .272995 .32235719 .2559967 .25532533 .21899414 .11528015 .20298767 .053268434 .16799927 .011245728 .12399292 .011245728 .117996219 .011245728 .09498596 .011245728 .07398987 .024276734 .09899902 .029266358 .12098694 .05027771 .12098694 .07827759 .12098694 .105270389 .09899902 .11328125 .083999637 .11328125 .053985597 .11328125 .0289917 .08728027 .0289917 .055267335 .0289917 .009246826 .07899475-.0107421879 .12298584-.0107421879 .18899536-.0107421879 .22499085 .059280397 .22799683 .0652771 .23999024 .028274537 .27598573-.0107421879 .33599855-.0107421879 .43899537-.0107421879 .49598695 .118270877 .49598695 .14328003 .49598695 .1532898 .4869995 .1532898 .48399354 .1532898 .47499085 .1532898 .47299195 .14929199 .47099305 .14228821 .43798829 .03527832 .36999513 .011245728 .33799745 .011245728 .29899598 .011245728 .2829895 .043273927 .2829895 .07727051 .2829895 .09927368 .2889862 .121276859 .2999878 .16529846L.33399964 .30233766Z"/>
</defs>
<path transform="matrix(1.00006,0,0,-1.00003,9.862686,169.76273)" stroke-width=".3985" stroke-linecap="butt" stroke-miterlimit="10" stroke-linejoin="miter" fill="none" stroke="#000000" d="M0 0H192.28079"/>
<path transform="matrix(1.00006,0,0,-1.00003,202.15502,169.76273)" d="M1.99252 0-1.19551 1.59401 0 0-1.19551-1.59401"/>
<path transform="matrix(1.00006,0,0,-1.00003,9.862686,169.76273)" stroke-width=".3985" stroke-linecap="butt" stroke-miterlimit="10" stroke-linejoin="miter" fill="none" stroke="#000000" d="M0 0V159.39928"/>
<path transform="matrix(0,-1.00003,-1.00006,-0,9.862686,10.358658)" d="M1.99252 0-1.19551 1.59401 0 0-1.19551-1.59401"/>
<g clip-path="url(#clip_1)">
<path transform="matrix(1.00006,0,0,-1.00003,9.862686,169.76273)" stroke-width=".79701" stroke-linecap="butt" stroke-miterlimit="10" stroke-linejoin="miter" fill="none" stroke="#000000" d="M0 0 .97623 7.91003 1.95247 15.42903 2.92873 22.5691 3.90498 29.34279 4.88123 35.77014 5.85748 41.858 6.83372 47.62512 7.80998 53.07788 8.78622 58.23163 9.76248 63.09518 10.73871 67.6829 11.71497 72.0053 12.69121 76.06578 13.66747 79.88463 14.6437 83.4727 15.61996 86.81732 16.5962 89.96988 17.57246 92.89584 18.5487 95.62053 19.52496 98.15366 20.5012 100.50664 21.47745 102.67165 22.45369 104.68788 23.42995 106.51457 24.40619 108.21346 25.38245 109.73753 26.35869 111.13344 27.33495 112.38823 28.31119 113.50449 29.28745 114.52315 30.26369 115.39902 31.23993 116.16298 32.21617 116.82233 33.19243 117.38164 34.16867 117.828 35.14493 118.18439 36.12117 118.46654 37.09743 118.64503 38.07367 118.73082 39.04993 118.75491 40.02617 118.70135 41.00243 118.59892 41.97865 118.38869 42.95491 118.14093 43.93115 117.83691 44.90741 117.46722 45.88365 117.04779 46.85991 116.57957 47.83615 116.0238 48.81241 115.47194 49.78865 114.84483 50.7649 114.18248 51.74113 113.49835 52.71738 112.75388 53.69363 112.0317 54.66988 111.2073 55.64613 110.41496 56.62238 109.52974 57.59863 108.64287 58.57487 107.75925 59.55113 106.82936 60.52737 105.9207 61.50363 104.91595 62.47986 103.93425 63.45612 102.97508 64.43236 101.93652 65.40862 100.92174 66.38486 99.89667 67.3611 98.84752 68.33736 97.7765 69.3136 96.70311 70.28986 95.66508 71.2661 94.56644 72.24234 93.46129 73.21858 92.41284 74.19484 91.30283 75.17108 90.18741 76.14734 89.08131 77.12358 87.98732 78.09984 86.89514 79.07608 85.81354 80.05234 84.74478 81.02858 83.61748 82.00482 82.51309 82.98106 81.42726 83.9573 80.3626 84.93356 79.2508 85.9098 78.15634 86.88606 77.09558 87.8623 76.07132 88.83856 74.99777 89.8148 73.94537 90.79106 72.89368 91.7673 71.84988 92.74356 70.81241 93.71979 69.78172 94.69604 68.75986 95.67229 67.74478 96.64854 66.7385 97.62479 65.73946 98.60103 64.74924 99.57729 63.76814 100.55353 62.79501 101.52979 61.83154 102.50603 60.8778 103.48227 59.93192 104.45851 58.99687 105.43477 58.07045 106.41101 57.15347 107.38727 56.24707 108.36351 55.35002 109.33977 54.46237 110.31601 53.58563 111.29227 52.71822 112.26851 51.86205 113.24477 51.01453 114.221 50.17732 115.19724 49.35078 116.1735 48.53387 117.14973 47.72734 118.12599 46.93132 119.10223 46.14433 120.07849 45.36827 121.05473 44.60268 122.03099 43.8464 123.00723 43.10101 123.98347 42.36494 124.95972 41.63863 125.93597 40.9231 126.91222 40.21684 127.88847 39.52031 128.86472 38.83434 129.84098 38.1575 130.81722 37.4908 131.79346 36.83336 132.76972 36.18521 133.74596 35.54733 134.7222 34.91795 135.69844 34.29816 136.6747 33.68794 137.65094 33.08652 138.6272 32.49422 139.60344 31.91159 140.5797 31.33704 141.55594 30.77196 142.5322 30.2155 143.50844 29.66711 144.48468 29.1282 145.46092 28.59709 146.43717 28.07463 147.41342 27.56067 148.38967 27.05473 149.36592 26.55757 150.34217 26.06746 151.31842 25.5857 152.29467 25.11203 153.27092 24.64558 154.24716 24.18727 155.2234 23.73668 156.19965 23.29277 157.1759 22.85709 158.15215 22.42844 159.1284 22.00676 160.10465 21.59254 161.0809 21.18501 162.05715 20.78445 163.03339 20.39091 164.00965 20.00397 164.98589 19.62366 165.96213 19.25012 166.93837 18.88292 167.91463 18.52214 168.89087 18.16757 169.86713 17.81905 170.84337 17.47711 171.81963 17.14058 172.79587 16.81026 173.77213 16.4858 174.74837 16.16696 175.72461 15.85388 176.70085 15.54646 177.67711 15.24445 178.65335 14.94794 179.6296 14.65698 180.60585 14.37077 181.58209 14.09015 182.55835 13.81433 183.53459 13.54375 184.51085 13.27782 185.48709 13.01689 186.46334 12.76077 187.43958 12.50922 188.41584 12.26227 189.39208 12.0201 190.36833 11.78221 191.34458 11.54874 192.32083 11.31981 193.29708 11.09483 194.27332 10.87428"/>
<path transform="matrix(1.00006,0,0,-1.00003,9.862686,169.76273)" stroke-width=".3985" stroke-linecap="butt" stroke-dasharray="2.98883,2.98883" stroke-miterlimit="10" stroke-linejoin="miter" fill="none" stroke="#000000" d="M65.27596 0V100.06291"/>
<use data-text="M" xlink:href="#font_2_74" transform="matrix(9.963197,0,0,-9.962899,78.66281,66.06761)"/>
<use data-text="e" xlink:href="#font_2_50" transform="matrix(9.963197,0,0,-9.962899,87.799068,66.06761)"/>
<use data-text="d" xlink:href="#font_2_47" transform="matrix(9.963197,0,0,-9.962899,92.222728,66.06761)"/>
<use data-text="i" xlink:href="#font_2_66" transform="matrix(9.963197,0,0,-9.962899,97.76226,66.06761)"/>
<use data-text="a" xlink:href="#font_2_28" transform="matrix(9.963197,0,0,-9.962899,100.53203,66.06761)"/>
<use data-text="n" xlink:href="#font_2_77" transform="matrix(9.963197,0,0,-9.962899,105.513629,66.06761)"/>
<path transform="matrix(1.00006,0,0,-1.00003,9.862686,169.76273)" stroke-width=".3985" stroke-linecap="butt" stroke-dasharray="2.98883,2.98883" stroke-miterlimit="10" stroke-linejoin="miter" fill="none" stroke="#000000" d="M77.70947 0V87.15157"/>
<use data-text="M" xlink:href="#font_2_74" transform="matrix(9.963197,0,0,-9.962899,91.09655,85.95621)"/>
<use data-text="e" xlink:href="#font_2_50" transform="matrix(9.963197,0,0,-9.962899,100.2328,85.95621)"/>
<use data-text="a" xlink:href="#font_2_28" transform="matrix(9.963197,0,0,-9.962899,104.65646,85.95621)"/>
<use data-text="n" xlink:href="#font_2_77" transform="matrix(9.963197,0,0,-9.962899,109.63806,85.95621)"/>
<path transform="matrix(1.00006,0,0,-1.00003,9.862686,169.76273)" stroke-width=".3985" stroke-linecap="butt" stroke-dasharray="2.98883,2.98883" stroke-miterlimit="10" stroke-linejoin="miter" fill="none" stroke="#000000" d="M38.85474 0V119.42993"/>
<use data-text="M" xlink:href="#font_2_74" transform="matrix(9.963197,0,0,-9.962899,36.539285,46.700029)"/>
<use data-text="o" xlink:href="#font_2_81" transform="matrix(9.963197,0,0,-9.962899,45.675539,46.700029)"/>
<use data-text="d" xlink:href="#font_2_47" transform="matrix(9.963197,0,0,-9.962899,50.92614,46.700029)"/>
<use data-text="e" xlink:href="#font_2_50" transform="matrix(9.963197,0,0,-9.962899,56.465684,46.700029)"/>
</g>
<use data-text="f" xlink:href="#font_3_1" transform="matrix(9.963197,0,0,-9.962899,1.2171784,7.8368685)"/>
<use data-text="x" xlink:href="#font_3_2" transform="matrix(9.963197,0,0,-9.962899,208.2896,171.9078)"/>
</svg>
