<svg xmlns="http://www.w3.org/2000/svg" xmlns:xlink="http://www.w3.org/1999/xlink" version="1.1" width="215" height="174" viewBox="0 0 215 174">
<defs>
<clipPath id="clip_1">
<path transform="matrix(1.00006,0,0,-1.00003,-54.898195,169.77674)" d="M64.75739 .01408H259.02955V161.4108H64.75739Z"/>
</clipPath>
<path id="font_2_74" d="M.8789978 0V.0309906H.8549957C.7779999 .0309906 .776001 .041992189 .776001 .07795715V.6046295C.776001 .64060977 .7779999 .6516113 .8549957 .6516113H.8789978V.6826172H.70999148C.6839905 .6826172 .6839905 .6816101 .6769867 .66360476L.45799256 .10095215 .24099732 .660614C.23199463 .6826172 .22898865 .6826172 .20599365 .6826172H.036987306V.6516113H.06098938C.13798523 .6516113 .13999939 .64060977 .13999939 .6046295V.10494995C.13999939 .07795715 .13999939 .0309906 .036987306 .0309906V0L.1539917 .0029907227 .2709961 0V.0309906C.16799927 .0309906 .16799927 .07795715 .16799927 .10494995V.6436157H.16899109L.4099884 .021987915C.4149933 .008987427 .41999818 0 .42999269 0 .44099427 0 .44400025 .0079956059 .44799806 .018997193L.69400027 .6516113H.69499209V.07795715C.69499209 .041992189 .69299319 .0309906 .6159973 .0309906H.59199526V0C.6289978 .0029907227 .69699099 .0029907227 .73599246 .0029907227 .7749939 .0029907227 .84199526 .0029907227 .8789978 0Z"/>
<path id="font_2_50" d="M.4149933 .11933899C.4149933 .12934876 .40699769 .13134766 .4019928 .13134766 .3929901 .13134766 .3909912 .12535095 .3889923 .11734009 .35398866 .014251709 .2639923 .014251709 .2539978 .014251709 .20399475 .014251709 .1639862 .044281007 .14099121 .08131409 .11099243 .12934876 .11099243 .19540406 .11099243 .23144531H.3899994C.4119873 .23144531 .4149933 .23144531 .4149933 .2524414 .4149933 .35131837 .36099244 .4482422 .23599243 .4482422 .11999512 .4482422 .027999878 .34532167 .027999878 .22042847 .027999878 .08631897 .1329956-.0107421879 .24798584-.0107421879 .36999513-.0107421879 .4149933 .10032654 .4149933 .11933899M.34899903 .2524414H.11199951C.117996219 .40126039 .20199585 .426239 .23599243 .426239 .33898927 .426239 .34899903 .2913971 .34899903 .2524414Z"/>
<path id="font_2_28" d="M.48298646 .08912659V.14511109H.45799256V.08912659C.45799256 .03112793 .43299867 .025131226 .42199708 .025131226 .3889923 .025131226 .3849945 .070129398 .3849945 .07511902V.27508546C.3849945 .31707765 .3849945 .3560791 .34899903 .39312745 .30999757 .43223573 .2599945 .4482422 .21199036 .4482422 .12998963 .4482422 .06098938 .40115357 .06098938 .335083 .06098938 .30508424 .08099365 .28808595 .10699463 .28808595 .1349945 .28808595 .15299988 .30807496 .15299988 .33407594 .15299988 .3460846 .147995 .37908937 .101989749 .38008119 .1289978 .41519166 .17799378 .426239 .20999146 .426239 .25898744 .426239 .31599427 .38710023 .31599427 .29808045V.26107789C.2649994 .25808717 .19499207 .25508119 .13198853 .22509766 .056991579 .19110108 .03199768 .13911438 .03199768 .09512329 .03199768 .014251709 .1289978-.0107421879 .19198609-.0107421879 .2579956-.0107421879 .3039856 .029251099 .32299806 .07624817 .32699586 .036132814 .35398866-.005859375 .40098573-.005859375 .42199708-.005859375 .48298646 .008132935 .48298646 .08912659M.31599427 .14013672C.31599427 .04525757 .24398804 .011245728 .19898987 .011245728 .1499939 .011245728 .10899353 .04624939 .10899353 .09625244 .10899353 .15124512 .15098572 .23425293 .31599427 .24024964V.14013672Z"/>
<path id="font_2_77" d="M.5349884 0V.0309906C.48298646 .0309906 .45799256 .0309906 .45700074 .061019899V.25221253C.45700074 .3383026 .45700074 .36932374 .42599488 .405365 .4119873 .42237855 .3789978 .4423828 .32099916 .4423828 .24798584 .4423828 .20098877 .39935304 .17298889 .33729554V.4423828L.03199768 .43066407V.3996582C.101989749 .3996582 .10998535 .39266969 .10998535 .34370423V.07595825C.10998535 .0309906 .09899902 .0309906 .03199768 .0309906V0L.14498902 .0029907227 .25698854 0V.0309906C.18998719 .0309906 .1789856 .0309906 .1789856 .07595825V.25978089C.1789856 .36431886 .25 .42037965 .31399537 .42037965 .3769989 .42037965 .3880005 .36631776 .3880005 .30926515V.076034549C.3880005 .0309906 .3769989 .0309906 .30999757 .0309906V0L.4229889 .0029907227 .5349884 0Z"/>
<path id="font_2_45" d="M.20298767 .0009918213C.20298767 .06498718 .1789856 .10598755 .13899231 .10598755 .10398865 .10598755 .085998538 .07899475 .085998538 .052993776 .085998538 .026992798 .102996829 0 .13899231 0 .1539917 0 .16799927 .005996704 .1789856 .015991211 .18099976-.06312561 .15299988-.12423706 .10899353-.17132569 .102996829-.17733765 .101989749-.17834473 .101989749-.18234253 .101989749-.18936157 .10699463-.19335938 .11199951-.19335938 .12399292-.19335938 .20298767-.114227298 .20298767 .0009918213Z"/>
<path id="font_2_47" d="M.5269928 0V.0309906C.45700074 .0309906 .44898988 .038009645 .44898988 .0871582V.69433596L.30499269 .6826172V.6516113C.375 .6516113 .3829956 .64463809 .3829956 .59580996V.38035584C.35398866 .41636659 .31098939 .4423828 .25698854 .4423828 .13899231 .4423828 .033996583 .3443451 .033996583 .21531677 .033996583 .088272098 .13198853-.0107421879 .24598694-.0107421879 .30999757-.0107421879 .35499574 .023254395 .37998963 .055267335V-.0107421879L.5269928 0M.37998963 .117996219C.37998963 .099990848 .37998963 .09799194 .36898805 .08099365 .33898927 .033218385 .2939911 .011245728 .25099183 .011245728 .20599365 .011245728 .16999817 .037216188 .1459961 .075164798 .11999512 .1161499 .116989139 .17320252 .116989139 .21421814 .116989139 .25125123 .11898804 .31129457 .147995 .35632325 .16899109 .38734437 .20698548 .42037965 .26098634 .42037965 .29599 .42037965 .33799745 .405365 .36898805 .3603363 .37998963 .34332276 .37998963 .34132386 .37998963 .32330323V.117996219Z"/>
<path id="font_2_66" d="M.24699402 0V.0309906C.18099976 .0309906 .1769867 .035995485 .1769867 .075042728V.4423828L.036987306 .43066407V.3996582C.101989749 .3996582 .11099243 .3936615 .11099243 .3447113V.07595825C.11099243 .0309906 .099990848 .0309906 .032989503 .0309906V0L.14299011 .0029907227C.17799378 .0029907227 .21299744 .0009918213 .24699402 0M.19198609 .603775C.19198609 .6307678 .16899109 .6567688 .13899231 .6567688 .10499573 .6567688 .084991458 .6287689 .084991458 .603775 .084991458 .57676699 .10798645 .55078127 .13798523 .55078127 .17199707 .55078127 .19198609 .5787811 .19198609 .603775Z"/>
<path id="font_2_81" d="M.47099305 .21424866C.47099305 .34223939 .37098695 .4482422 .25 .4482422 .125 .4482422 .027999878 .3392334 .027999878 .21424866 .027999878 .085250858 .13198853-.0107421879 .24899292-.0107421879 .36999513-.0107421879 .47099305 .087249759 .47099305 .21424866M.3880005 .22224427C.3880005 .18624878 .3880005 .13224793 .3659973 .08824158 .34399415 .04324341 .2999878 .014251709 .25 .014251709 .20698548 .014251709 .16299439 .035247804 .13598633 .08125305 .11099243 .12524414 .11099243 .18624878 .11099243 .22224427 .11099243 .26124574 .11099243 .31523133 .1349945 .35923768 .1619873 .40522767 .20899964 .426239 .24899292 .426239 .29299928 .426239 .33599855 .40423585 .3619995 .36123658 .3880005 .3182373 .3880005 .26023866 .3880005 .22224427Z"/>
<path id="font_3_1" d="M.36698915 .3996582H.45298768C.47299195 .3996582 .48298646 .3996582 .48298646 .41966249 .48298646 .43066407 .47299195 .43066407 .45599366 .43066407H.37298585L.3939972 .5449524C.397995 .5660095 .4119873 .6370239 .41799928 .6490326 .4269867 .66804507 .44400025 .68307498 .46499635 .68307498 .46899415 .68307498 .49499513 .68307498 .5139923 .66503909 .46998597 .661026 .45999146 .6260376 .45999146 .6110382 .45999146 .58802798 .47799684 .57603457 .49699403 .57603457 .522995 .57603457 .5519867 .5980377 .5519867 .6360321 .5519867 .6820679 .5059967 .7050781 .46499635 .7050781 .43099977 .7050781 .36799623 .68707278 .33799745 .58802798 .33198548 .56700137 .32899476 .5569763 .30499269 .43066407H.23599243C.21699524 .43066407 .20599365 .43066407 .20599365 .4116516 .20599365 .3996582 .21499634 .3996582 .23399353 .3996582H.2999878L.22499085 .0048828127C.20698548-.09207153 .18998719-.18309021 .13798523-.18309021 .13398743-.18309021 .10899353-.18309021 .08999634-.16506958 .13598633-.1620636 .14498902-.12606812 .14498902-.111068729 .14498902-.08807373 .1269989-.07606506 .10798645-.07606506 .08198547-.07606506 .052993776-.09806824 .052993776-.13606262 .052993776-.18109131 .09700012-.20507813 .13798523-.20507813 .19299317-.20507813 .23298645-.14607239 .25099183-.108062747 .2829895-.04508972 .30599977 .07583618 .30699159 .082839969L.36698915 .3996582Z"/>
<path id="font_3_2" d="M.33399964 .30233766C.33999635 .32835389 .36299134 .42037965 .43299867 .42037965 .43798829 .42037965 .46199037 .42037965 .48298646 .40734864 .45498658 .402359 .43499757 .37734986 .43499757 .35334779 .43499757 .33735658 .44599916 .31835938 .47299195 .31835938 .49499513 .31835938 .5269928 .3363495 .5269928 .37635804 .5269928 .42837525 .46798707 .4423828 .43399049 .4423828 .37599183 .4423828 .34098817 .38935853 .32899476 .36634828 .3039856 .43237306 .25 .4423828 .22099304 .4423828 .116989139 .4423828 .05999756 .3133545 .05999756 .28834535 .05999756 .27833558 .069992069 .27833558 .07199097 .27833558 .07998657 .27833558 .08299255 .28033448 .084991458 .28933717 .11898804 .39535523 .18499756 .42037965 .21899414 .42037965 .23799134 .42037965 .272995 .4113617 .272995 .35334779 .272995 .32235719 .2559967 .25532533 .21899414 .11528015 .20298767 .053268434 .16799927 .011245728 .12399292 .011245728 .117996219 .011245728 .09498596 .011245728 .07398987 .024276734 .09899902 .029266358 .12098694 .05027771 .12098694 .07827759 .12098694 .105270389 .09899902 .11328125 .083999637 .11328125 .053985597 .11328125 .0289917 .08728027 .0289917 .055267335 .0289917 .009246826 .07899475-.0107421879 .12298584-.0107421879 .18899536-.0107421879 .22499085 .059280397 .22799683 .0652771 .23999024 .028274537 .27598573-.0107421879 .33599855-.0107421879 .43899537-.0107421879 .49598695 .118270877 .49598695 .14328003 .49598695 .1532898 .4869995 .1532898 .48399354 .1532898 .47499085 .1532898 .47299195 .14929199 .47099305 .14228821 .43798829 .03527832 .36999513 .011245728 .33799745 .011245728 .29899598 .011245728 .2829895 .043273927 .2829895 .07727051 .2829895 .09927368 .2889862 .121276859 .2999878 .16529846L.33399964 .30233766Z"/>
</defs>
<path transform="matrix(1.00006,0,0,-1.00003,-54.898195,169.77674)" stroke-width=".3985" stroke-linecap="butt" stroke-miterlimit="10" stroke-linejoin="miter" fill="none" stroke="#000000" d="M64.75739 .01408H257.03703"/>
<path transform="matrix(1.00006,0,0,-1.00003,202.15424,169.76265)" d="M1.99252 0-1.19551 1.59401 0 0-1.19551-1.59401"/>
<path transform="matrix(1.00006,0,0,-1.00003,-54.898195,169.77674)" stroke-width=".3985" stroke-linecap="butt" stroke-miterlimit="10" stroke-linejoin="miter" fill="none" stroke="#000000" d="M64.75739 .01408V159.41828"/>
<path transform="matrix(0,-1.00003,-1.00006,-0,9.863083,10.353668)" d="M1.99252 0-1.19551 1.59401 0 0-1.19551-1.59401"/>
<g clip-path="url(#clip_1)">
<path transform="matrix(1.00006,0,0,-1.00003,-54.898195,169.77674)" stroke-width=".79701" stroke-linecap="butt" stroke-miterlimit="10" stroke-linejoin="miter" fill="none" stroke="#000000" d="M0 0H1.62701 3.25404 4.88107 6.5081 8.13512 9.76216 11.38918 13.0162 14.64323 16.27026 17.89728 19.52432 21.15134 22.77837 24.4054 26.03242 27.65944 29.28648 30.9135 32.54053 34.16756L35.79459 .00002 37.42162 .00003 39.04865 .00005 40.67567 .00006 42.30269 .0001 43.92973 .00015 45.55675 .00024 47.18379 .00035 48.8108 .00052 50.43784 .00075 52.06487 .00107 53.6919 .00151 55.31891 .0021 56.94595 .00293 58.57297 .00406 60.2 .00558 61.82703 .00764 63.45406 .01039 65.08107 .01408 66.70811 .01898 68.33513 .02544 69.96216 .03394 71.58919 .04501 73.21622 .05946 74.84325 .0781 76.47028 .10207 78.0973 .13272 79.72432 .17172 81.35136 .22107 82.97838 .28314 84.60541 .36082 86.23244 .45747 87.85947 .57713 89.48648 .72441 91.11353 .9047 92.74054 1.12408 94.36758 1.38972 95.9946 1.70946 97.62163 2.09215 99.24866 2.54767 100.87569 3.0867 102.5027 3.72089 104.12975 4.4628 105.75676 5.32571 107.38379 6.32352 109.01082 7.47043 110.63785 8.7807 112.26488 10.26898 113.8919 11.94655 115.51894 13.82967 117.14595 15.92906 118.773 18.26523 120.40001 20.8263 122.02704 23.63591 123.65407 26.67044 125.2811 29.96428 126.90811 33.48413 128.53516 37.22992 130.16217 41.18988 131.7892 45.34459 133.41623 49.6607 135.04326 54.10489 136.67029 58.65881 138.29732 63.28702 139.92435 67.91628 141.55138 72.5337 143.1784 77.06503 144.80544 81.46724 146.43247 85.68546 148.0595 89.66907 149.68653 93.37076 151.31356 96.72917 152.9406 99.71097 154.56761 102.26126 156.19466 104.34993 157.82167 105.9425 159.44872 107.01965 161.07573 107.55768H162.70278L164.32979 107.01965 165.95684 105.9425 167.58385 104.34993 169.21088 102.27203 170.8379 99.72067 172.46494 96.75069 174.09197 93.38152 175.719 89.6906 177.34603 85.70697 178.97306 81.48877 180.60009 77.08655 182.22711 72.55522 183.85414 67.93779 185.48117 63.30852 187.1082 58.68034 188.73523 54.12857 190.36228 49.68224 191.98929 45.36719 193.61632 41.2114 195.24335 37.25143 196.87038 33.50565 198.4974 29.98581 200.12444 26.69194 201.75145 23.64558 203.3785 20.83598 205.00551 18.27492 206.63256 15.94952 208.25957 13.84042 209.8866 11.9562 211.51363 10.27713 213.14066 8.78789 214.76767 7.47665 216.39472 6.32904 218.02173 5.33055 219.64876 4.46693 221.27579 3.72449 222.90282 3.08972 224.52983 2.55023 226.15688 2.09431 227.7839 1.71127 229.41092 1.39125 231.03797 1.12535 232.66498 .90572 234.292 .72525 235.91904 .57782 237.54607 .45805 239.17308 .36127 240.80013 .2835 242.42714 .22134 244.05417 .17195 245.6812 .13292 247.30823 .1022 248.93524 .0782 250.56229 .05954 252.1893 .04509 253.81635 .03398 255.44336 .02548 257.0704 .019 258.69743 .0141 260.32447 .0104 261.95146 .00766 263.5785 .00558 265.20555 .00406 266.83256 .00294 268.4596 .0021 270.0866 .00151 271.71366 .00107 273.34068 .00075 274.9677 .00052 276.5947 .00035 278.22178 .00024 279.84877 .00015 281.4758 .0001 283.10285 .00006 284.72987 .00005 286.35688 .00003 287.98393 .00002 289.61094 0H291.23796 292.865 294.49205 296.11903 297.7461 299.3731 301.00016 302.62718 304.25419 305.88124 307.50825 309.13529 310.7623 312.38935 314.01634 315.6434 317.2704 318.89744 320.52449 322.1515 323.7785"/>
<path transform="matrix(1.00006,0,0,-1.00003,-54.898195,169.77674)" stroke-width=".3985" stroke-linecap="butt" stroke-dasharray="2.98883,2.98883" stroke-miterlimit="10" stroke-linejoin="miter" fill="none" stroke="#000000" d="M161.89347 0V107.6072"/>
<use data-text="M" xlink:href="#font_2_74" transform="matrix(9.963197,0,0,-9.962899,60.500726,56.723337)"/>
<use data-text="e" xlink:href="#font_2_50" transform="matrix(9.963197,0,0,-9.962899,69.63698,56.723337)"/>
<use data-text="a" xlink:href="#font_2_28" transform="matrix(9.963197,0,0,-9.962899,74.06064,56.723337)"/>
<use data-text="n" xlink:href="#font_2_77" transform="matrix(9.963197,0,0,-9.962899,79.04224,56.723337)"/>
<use data-text="," xlink:href="#font_2_45" transform="matrix(9.963197,0,0,-9.962899,84.58177,56.723337)"/>
<use data-text="M" xlink:href="#font_2_74" transform="matrix(9.963197,0,0,-9.962899,90.6693,56.723337)"/>
<use data-text="e" xlink:href="#font_2_50" transform="matrix(9.963197,0,0,-9.962899,99.80554,56.723337)"/>
<use data-text="d" xlink:href="#font_2_47" transform="matrix(9.963197,0,0,-9.962899,104.2292,56.723337)"/>
<use data-text="i" xlink:href="#font_2_66" transform="matrix(9.963197,0,0,-9.962899,109.76874,56.723337)"/>
<use data-text="a" xlink:href="#font_2_28" transform="matrix(9.963197,0,0,-9.962899,112.538509,56.723337)"/>
<use data-text="n" xlink:href="#font_2_77" transform="matrix(9.963197,0,0,-9.962899,117.5201,56.723337)"/>
<use data-text="," xlink:href="#font_2_45" transform="matrix(9.963197,0,0,-9.962899,123.05965,56.723337)"/>
<use data-text="M" xlink:href="#font_2_74" transform="matrix(9.963197,0,0,-9.962899,129.14716,56.723337)"/>
<use data-text="o" xlink:href="#font_2_81" transform="matrix(9.963197,0,0,-9.962899,138.2834,56.723337)"/>
<use data-text="d" xlink:href="#font_2_47" transform="matrix(9.963197,0,0,-9.962899,143.54398,56.723337)"/>
<use data-text="e" xlink:href="#font_2_50" transform="matrix(9.963197,0,0,-9.962899,149.08351,56.723337)"/>
</g>
<use data-text="f" xlink:href="#font_3_1" transform="matrix(9.963197,0,0,-9.962899,1.2171784,7.8368685)"/>
<use data-text="x" xlink:href="#font_3_2" transform="matrix(9.963197,0,0,-9.962899,208.2896,171.9078)"/>
</svg>
