<svg xmlns="http://www.w3.org/2000/svg" xmlns:xlink="http://www.w3.org/1999/xlink" version="1.1" width="215" height="174" viewBox="0 0 215 174">
<defs>
<clipPath id="clip_1">
<path transform="matrix(1.00006,0,0,-1.00003,9.862686,169.76273)" d="M0 0H194.26988V161.3965H0Z"/>
</clipPath>
<path id="font_2_74" d="M.8789978 0V.0309906H.8549957C.7779999 .0309906 .776001 .041992189 .776001 .07795715V.6046295C.776001 .64060977 .7779999 .6516113 .8549957 .6516113H.8789978V.6826172H.70999148C.6839905 .6826172 .6839905 .6816101 .6769867 .66360476L.45799256 .10095215 .24099732 .660614C.23199463 .6826172 .22898865 .6826172 .20599365 .6826172H.036987306V.6516113H.06098938C.13798523 .6516113 .13999939 .64060977 .13999939 .6046295V.10494995C.13999939 .07795715 .13999939 .0309906 .036987306 .0309906V0L.1539917 .0029907227 .2709961 0V.0309906C.16799927 .0309906 .16799927 .07795715 .16799927 .10494995V.6436157H.16899109L.4099884 .021987915C.4149933 .008987427 .41999818 0 .42999269 0 .44099427 0 .44400025 .0079956059 .44799806 .018997193L.69400027 .6516113H.69499209V.07795715C.69499209 .041992189 .69299319 .0309906 .6159973 .0309906H.59199526V0C.6289978 .0029907227 .69699099 .0029907227 .73599246 .0029907227 .7749939 .0029907227 .84199526 .0029907227 .8789978 0Z"/>
<path id="font_2_50" d="M.4149933 .11933899C.4149933 .12934876 .40699769 .13134766 .4019928 .13134766 .3929901 .13134766 .3909912 .12535095 .3889923 .11734009 .35398866 .014251709 .2639923 .014251709 .2539978 .014251709 .20399475 .014251709 .1639862 .044281007 .14099121 .08131409 .11099243 .12934876 .11099243 .19540406 .11099243 .23144531H.3899994C.4119873 .23144531 .4149933 .23144531 .4149933 .2524414 .4149933 .35131837 .36099244 .4482422 .23599243 .4482422 .11999512 .4482422 .027999878 .34532167 .027999878 .22042847 .027999878 .08631897 .1329956-.0107421879 .24798584-.0107421879 .36999513-.0107421879 .4149933 .10032654 .4149933 .11933899M.34899903 .2524414H.11199951C.117996219 .40126039 .20199585 .426239 .23599243 .426239 .33898927 .426239 .34899903 .2913971 .34899903 .2524414Z"/>
<path id="font_2_47" d="M.5269928 0V.0309906C.45700074 .0309906 .44898988 .038009645 .44898988 .0871582V.69433596L.30499269 .6826172V.6516113C.375 .6516113 .3829956 .64463809 .3829956 .59580996V.38035584C.35398866 .41636659 .31098939 .4423828 .25698854 .4423828 .13899231 .4423828 .033996583 .3443451 .033996583 .21531677 .033996583 .088272098 .13198853-.0107421879 .24598694-.0107421879 .30999757-.0107421879 .35499574 .023254395 .37998963 .055267335V-.0107421879L.5269928 0M.37998963 .117996219C.37998963 .099990848 .37998963 .09799194 .36898805 .08099365 .33898927 .033218385 .2939911 .011245728 .25099183 .011245728 .20599365 .011245728 .16999817 .037216188 .1459961 .075164798 .11999512 .1161499 .116989139 .17320252 .116989139 .21421814 .116989139 .25125123 .11898804 .31129457 .147995 .35632325 .16899109 .38734437 .20698548 .42037965 .26098634 .42037965 .29599 .42037965 .33799745 .405365 .36898805 .3603363 .37998963 .34332276 .37998963 .34132386 .37998963 .32330323V.117996219Z"/>
<path id="font_2_66" d="M.24699402 0V.0309906C.18099976 .0309906 .1769867 .035995485 .1769867 .075042728V.4423828L.036987306 .43066407V.3996582C.101989749 .3996582 .11099243 .3936615 .11099243 .3447113V.07595825C.11099243 .0309906 .099990848 .0309906 .032989503 .0309906V0L.14299011 .0029907227C.17799378 .0029907227 .21299744 .0009918213 .24699402 0M.19198609 .603775C.19198609 .6307678 .16899109 .6567688 .13899231 .6567688 .10499573 .6567688 .084991458 .6287689 .084991458 .603775 .084991458 .57676699 .10798645 .55078127 .13798523 .55078127 .17199707 .55078127 .19198609 .5787811 .19198609 .603775Z"/>
<path id="font_2_28" d="M.48298646 .08912659V.14511109H.45799256V.08912659C.45799256 .03112793 .43299867 .025131226 .42199708 .025131226 .3889923 .025131226 .3849945 .070129398 .3849945 .07511902V.27508546C.3849945 .31707765 .3849945 .3560791 .34899903 .39312745 .30999757 .43223573 .2599945 .4482422 .21199036 .4482422 .12998963 .4482422 .06098938 .40115357 .06098938 .335083 .06098938 .30508424 .08099365 .28808595 .10699463 .28808595 .1349945 .28808595 .15299988 .30807496 .15299988 .33407594 .15299988 .3460846 .147995 .37908937 .101989749 .38008119 .1289978 .41519166 .17799378 .426239 .20999146 .426239 .25898744 .426239 .31599427 .38710023 .31599427 .29808045V.26107789C.2649994 .25808717 .19499207 .25508119 .13198853 .22509766 .056991579 .19110108 .03199768 .13911438 .03199768 .09512329 .03199768 .014251709 .1289978-.0107421879 .19198609-.0107421879 .2579956-.0107421879 .3039856 .029251099 .32299806 .07624817 .32699586 .036132814 .35398866-.005859375 .40098573-.005859375 .42199708-.005859375 .48298646 .008132935 .48298646 .08912659M.31599427 .14013672C.31599427 .04525757 .24398804 .011245728 .19898987 .011245728 .1499939 .011245728 .10899353 .04624939 .10899353 .09625244 .10899353 .15124512 .15098572 .23425293 .31599427 .24024964V.14013672Z"/>
<path id="font_2_77" d="M.5349884 0V.0309906C.48298646 .0309906 .45799256 .0309906 .45700074 .061019899V.25221253C.45700074 .3383026 .45700074 .36932374 .42599488 .405365 .4119873 .42237855 .3789978 .4423828 .32099916 .4423828 .24798584 .4423828 .20098877 .39935304 .17298889 .33729554V.4423828L.03199768 .43066407V.3996582C.101989749 .3996582 .10998535 .39266969 .10998535 .34370423V.07595825C.10998535 .0309906 .09899902 .0309906 .03199768 .0309906V0L.14498902 .0029907227 .25698854 0V.0309906C.18998719 .0309906 .1789856 .0309906 .1789856 .07595825V.25978089C.1789856 .36431886 .25 .42037965 .31399537 .42037965 .3769989 .42037965 .3880005 .36631776 .3880005 .30926515V.076034549C.3880005 .0309906 .3769989 .0309906 .30999757 .0309906V0L.4229889 .0029907227 .5349884 0Z"/>
<path id="font_2_81" d="M.47099305 .21424866C.47099305 .34223939 .37098695 .4482422 .25 .4482422 .125 .4482422 .027999878 .3392334 .027999878 .21424866 .027999878 .085250858 .13198853-.0107421879 .24899292-.0107421879 .36999513-.0107421879 .47099305 .087249759 .47099305 .21424866M.3880005 .22224427C.3880005 .18624878 .3880005 .13224793 .3659973 .08824158 .34399415 .04324341 .2999878 .014251709 .25 .014251709 .20698548 .014251709 .16299439 .035247804 .13598633 .08125305 .11099243 .12524414 .11099243 .18624878 .11099243 .22224427 .11099243 .26124574 .11099243 .31523133 .1349945 .35923768 .1619873 .40522767 .20899964 .426239 .24899292 .426239 .29299928 .426239 .33599855 .40423585 .3619995 .36123658 .3880005 .3182373 .3880005 .26023866 .3880005 .22224427Z"/>
<path id="font_3_1" d="M.36698915 .3996582H.45298768C.47299195 .3996582 .48298646 .3996582 .48298646 .41966249 .48298646 .43066407 .47299195 .43066407 .45599366 .43066407H.37298585L.3939972 .5449524C.397995 .5660095 .4119873 .6370239 .41799928 .6490326 .4269867 .66804507 .44400025 .68307498 .46499635 .68307498 .46899415 .68307498 .49499513 .68307498 .5139923 .66503909 .46998597 .661026 .45999146 .6260376 .45999146 .6110382 .45999146 .58802798 .47799684 .57603457 .49699403 .57603457 .522995 .57603457 .5519867 .5980377 .5519867 .6360321 .5519867 .6820679 .5059967 .7050781 .46499635 .7050781 .43099977 .7050781 .36799623 .68707278 .33799745 .58802798 .33198548 .56700137 .32899476 .5569763 .30499269 .43066407H.23599243C.21699524 .43066407 .20599365 .43066407 .20599365 .4116516 .20599365 .3996582 .21499634 .3996582 .23399353 .3996582H.2999878L.22499085 .0048828127C.20698548-.09207153 .18998719-.18309021 .13798523-.18309021 .13398743-.18309021 .10899353-.18309021 .08999634-.16506958 .13598633-.1620636 .14498902-.12606812 .14498902-.111068729 .14498902-.08807373 .1269989-.07606506 .10798645-.07606506 .08198547-.07606506 .052993776-.09806824 .052993776-.13606262 .052993776-.18109131 .09700012-.20507813 .13798523-.20507813 .19299317-.20507813 .23298645-.14607239 .25099183-.108062747 .2829895-.04508972 .30599977 .07583618 .30699159 .082839969L.36698915 .3996582Z"/>
<path id="font_3_2" d="M.33399964 .30233766C.33999635 .32835389 .36299134 .42037965 .43299867 .42037965 .43798829 .42037965 .46199037 .42037965 .48298646 .40734864 .45498658 .402359 .43499757 .37734986 .43499757 .35334779 .43499757 .33735658 .44599916 .31835938 .47299195 .31835938 .49499513 .31835938 .5269928 .3363495 .5269928 .37635804 .5269928 .42837525 .46798707 .4423828 .43399049 .4423828 .37599183 .4423828 .34098817 .38935853 .32899476 .36634828 .3039856 .43237306 .25 .4423828 .22099304 .4423828 .116989139 .4423828 .05999756 .3133545 .05999756 .28834535 .05999756 .27833558 .069992069 .27833558 .07199097 .27833558 .07998657 .27833558 .08299255 .28033448 .084991458 .28933717 .11898804 .39535523 .18499756 .42037965 .21899414 .42037965 .23799134 .42037965 .272995 .4113617 .272995 .35334779 .272995 .32235719 .2559967 .25532533 .21899414 .11528015 .20298767 .053268434 .16799927 .011245728 .12399292 .011245728 .117996219 .011245728 .09498596 .011245728 .07398987 .024276734 .09899902 .029266358 .12098694 .05027771 .12098694 .07827759 .12098694 .105270389 .09899902 .11328125 .083999637 .11328125 .053985597 .11328125 .0289917 .08728027 .0289917 .055267335 .0289917 .009246826 .07899475-.0107421879 .12298584-.0107421879 .18899536-.0107421879 .22499085 .059280397 .22799683 .0652771 .23999024 .028274537 .27598573-.0107421879 .33599855-.0107421879 .43899537-.0107421879 .49598695 .118270877 .49598695 .14328003 .49598695 .1532898 .4869995 .1532898 .48399354 .1532898 .47499085 .1532898 .47299195 .14929199 .47099305 .14228821 .43798829 .03527832 .36999513 .011245728 .33799745 .011245728 .29899598 .011245728 .2829895 .043273927 .2829895 .07727051 .2829895 .09927368 .2889862 .121276859 .2999878 .16529846L.33399964 .30233766Z"/>
</defs>
<path transform="matrix(1.00006,0,0,-1.00003,9.862686,169.76273)" stroke-width=".3985" stroke-linecap="butt" stroke-miterlimit="10" stroke-linejoin="miter" fill="none" stroke="#000000" d="M0 0H192.27735"/>
<path transform="matrix(1.00006,0,0,-1.00003,202.15157,169.76273)" d="M1.99252 0-1.19551 1.59401 0 0-1.19551-1.59401"/>
<path transform="matrix(1.00006,0,0,-1.00003,9.862686,169.76273)" stroke-width=".3985" stroke-linecap="butt" stroke-miterlimit="10" stroke-linejoin="miter" fill="none" stroke="#000000" d="M0 0V159.40398"/>
<path transform="matrix(0,-1.00003,-1.00006,-0,9.862686,10.353958)" d="M1.99252 0-1.19551 1.59401 0 0-1.19551-1.59401"/>
<g clip-path="url(#clip_1)">
<path transform="matrix(1.00006,0,0,-1.00003,9.862686,169.76273)" stroke-width=".79701" stroke-linecap="butt" stroke-miterlimit="10" stroke-linejoin="miter" fill="none" stroke="#000000" d="M0 10.87183 .88747 11.09248 1.77495 11.3172 2.66241 11.5464 3.54991 11.77988 4.4374 12.01755 5.32486 12.25998 6.21234 12.50674 7.09984 12.7583 7.9873 13.01462 8.87479 13.27547 9.76228 13.54129 10.64975 13.81212 11.53723 14.08777 12.42471 14.36858 13.3122 14.65448 14.19968 14.94556 15.08714 15.2423 15.97464 15.54414 16.86212 15.85165 17.74959 16.16487 18.63707 16.48347 19.52457 16.8082 20.41203 17.13818 21.29951 17.47478 22.18701 17.81703 23.07448 18.16531 23.96196 18.51991 24.84944 18.88094 25.73692 19.24802 26.6244 19.62172 27.51189 20.00206 28.39937 20.38882 29.28685 20.78258 30.17432 21.18283 31.0618 21.5905 31.9493 22.00494 32.83676 22.42621 33.72424 22.8551 34.61174 23.29103 35.4992 23.73425 36.38669 24.18556 37.27417 24.64351 38.16165 25.10966 39.04913 25.58408 39.93661 26.06557 40.8241 26.55522 41.71158 27.05318 42.59904 27.55878 43.48653 28.07312 44.37402 28.5956 45.26149 29.12633 46.14897 29.66568 47.03647 30.21347 47.92393 30.77039 48.81142 31.33568 49.6989 31.9095 50.58638 32.49295 51.47386 33.08527 52.36134 33.68622 53.24883 34.29698 54.1363 34.91635 55.02379 35.54544 55.91125 36.18413 56.79875 36.83176 57.68622 37.48926 58.5737 38.15652 59.4612 38.83315 60.34866 39.51938 61.23615 40.21527 62.12363 40.92162 63.01111 41.6378 63.89859 42.36354 64.78607 43.10005 65.67355 43.8457 66.56104 44.60115 67.44852 45.36765 68.33598 46.14375 69.22348 46.92969 70.11095 47.72684 70.99843 48.53273 71.88593 49.34955 72.77339 50.17694 73.66087 51.01338 74.54836 51.86069 75.43584 52.71794 76.32332 53.58507 77.2108 54.4622 78.09828 55.34901 78.98576 56.24634 79.87325 57.15346 80.76071 58.06932 81.64821 58.99611 82.53569 59.93204 83.42316 60.87665 84.31065 61.83174 85.19812 62.7946 86.0856 63.76743 86.97308 64.74963 87.86057 65.73904 88.74805 66.7378 89.63553 67.74533 90.52301 68.75943 91.41049 69.78238 92.29797 70.81313 93.18544 71.85007 94.07294 72.8945 94.96042 73.94482 95.84789 74.9987 96.73538 76.0723 97.62286 77.09663 98.51033 78.15746 99.39781 79.25195 100.2853 80.36382 101.17278 81.42856 102.06026 82.51437 102.94774 83.61888 103.83522 84.74626 104.7227 85.81505 105.61017 86.89673 106.49767 87.98898 107.38515 89.08304 108.27261 90.18912 109.16011 91.30469 110.04759 92.41473 110.93506 93.46317 111.82254 94.56848 112.71002 95.66716 113.5975 96.70525 114.48499 97.77872 115.37247 98.84981 116.25995 99.899 117.14743 100.92404 118.0349 101.93898 118.9224 102.97762 119.80988 103.93674 120.69734 104.91861 121.58484 105.92343 122.47232 106.83214 123.35979 107.76207 124.24727 108.64575 125.13477 109.5327 126.02223 110.37164 126.90971 111.21037 127.7972 112.0348 128.68468 112.75705 129.57216 113.50159 130.45963 114.18576 131.34712 114.84818 132.2346 115.47533 133.12207 116.02722 134.00955 116.54022 134.89705 117.05116 135.78452 117.4708 136.672 117.84053 137.5595 118.14442 138.44696 118.39236 139.33444 118.60265 140.22191 118.7051 141.1094 118.75868 141.99689 118.7346 142.88436 118.64885 143.77185 118.47037 144.65933 118.18822 145.54682 117.83185 146.4343 117.38548 147.32178 116.8262 148.20925 116.16685 149.09674 115.40288 149.98423 114.50511 150.87169 113.50835 151.75919 112.39206 152.64667 111.13725 153.53414 109.74133 154.42163 108.21718 155.3091 106.51826 156.19658 104.69154 157.08408 102.67525 157.97154 100.51018 158.85903 98.15714 159.7465 95.62395 160.63399 92.89917 161.52147 89.97311 162.40895 86.82045 163.29644 83.4757 164.18392 79.8875 165.07141 76.06856 165.95888 72.00792 166.84636 67.68541 167.73383 63.0975 168.62133 58.23378 169.5088 53.07986 170.39627 47.62689 171.28377 41.85959 172.17125 35.77145 173.05872 29.34386 173.94622 22.56996 174.8337 15.42815 175.72116 7.91034 176.60866 0"/>
<path transform="matrix(1.00006,0,0,-1.00003,9.862686,169.76273)" stroke-width=".3985" stroke-linecap="butt" stroke-dasharray="2.98883,2.98883" stroke-miterlimit="10" stroke-linejoin="miter" fill="none" stroke="#000000" d="M117.26836-.00288V100.06471"/>
<use data-text="M" xlink:href="#font_2_74" transform="matrix(9.963197,0,0,-9.962899,91.22756,66.06561)"/>
<use data-text="e" xlink:href="#font_2_50" transform="matrix(9.963197,0,0,-9.962899,100.363819,66.06561)"/>
<use data-text="d" xlink:href="#font_2_47" transform="matrix(9.963197,0,0,-9.962899,104.787479,66.06561)"/>
<use data-text="i" xlink:href="#font_2_66" transform="matrix(9.963197,0,0,-9.962899,110.32701,66.06561)"/>
<use data-text="a" xlink:href="#font_2_28" transform="matrix(9.963197,0,0,-9.962899,113.09678,66.06561)"/>
<use data-text="n" xlink:href="#font_2_77" transform="matrix(9.963197,0,0,-9.962899,118.07838,66.06561)"/>
<path transform="matrix(1.00006,0,0,-1.00003,9.862686,169.76273)" stroke-width=".3985" stroke-linecap="butt" stroke-dasharray="2.98883,2.98883" stroke-miterlimit="10" stroke-linejoin="miter" fill="none" stroke="#000000" d="M105.96538-.00288V87.15277"/>
<use data-text="M" xlink:href="#font_2_74" transform="matrix(9.963197,0,0,-9.962899,88.23338,85.95521)"/>
<use data-text="e" xlink:href="#font_2_50" transform="matrix(9.963197,0,0,-9.962899,97.36964,85.95521)"/>
<use data-text="a" xlink:href="#font_2_28" transform="matrix(9.963197,0,0,-9.962899,101.7933,85.95521)"/>
<use data-text="n" xlink:href="#font_2_77" transform="matrix(9.963197,0,0,-9.962899,106.774898,85.95521)"/>
<path transform="matrix(1.00006,0,0,-1.00003,9.862686,169.76273)" stroke-width=".3985" stroke-linecap="butt" stroke-dasharray="2.98883,2.98883" stroke-miterlimit="10" stroke-linejoin="miter" fill="none" stroke="#000000" d="M141.28719-.00288V119.43265"/>
<use data-text="M" xlink:href="#font_2_74" transform="matrix(9.963197,0,0,-9.962899,138.97843,46.69703)"/>
<use data-text="o" xlink:href="#font_2_81" transform="matrix(9.963197,0,0,-9.962899,148.11469,46.69703)"/>
<use data-text="d" xlink:href="#font_2_47" transform="matrix(9.963197,0,0,-9.962899,153.36528,46.69703)"/>
<use data-text="e" xlink:href="#font_2_50" transform="matrix(9.963197,0,0,-9.962899,158.90482,46.69703)"/>
</g>
<use data-text="f" xlink:href="#font_3_1" transform="matrix(9.963197,0,0,-9.962899,1.2171784,7.8368685)"/>
<use data-text="x" xlink:href="#font_3_2" transform="matrix(9.963197,0,0,-9.962899,208.2896,171.9078)"/>
</svg>
